<svg width="120" height="120" viewBox="0 0 120 120" fill="none" xmlns="http://www.w3.org/2000/svg">
<g clip-path="url(#clip0_73_2341)">
<path d="M59.9991 119.004C92.5864 119.004 119.004 92.5869 119.004 59.9996C119.004 27.4123 92.5864 0.995117 59.9991 0.995117C27.4118 0.995117 0.994629 27.4123 0.994629 59.9996C0.994629 92.5869 27.4118 119.004 59.9991 119.004Z" fill="#2D2D2D"/>
<path d="M59.9992 109.732C87.4658 109.732 109.732 87.4658 109.732 59.9992C109.732 32.5326 87.4658 10.2666 59.9992 10.2666C32.5326 10.2666 10.2666 32.5326 10.2666 59.9992C10.2666 87.4658 32.5326 109.732 59.9992 109.732Z" fill="url(#paint0_radial_73_2341)"/>
<g opacity="0.36">
<path d="M59.9993 119.119C46.3603 119.111 33.1434 114.388 22.5878 105.751C12.0321 97.1134 4.78665 85.0929 2.07871 71.7254C-0.629238 58.3579 1.36686 44.4653 7.72886 32.4009C14.0909 20.3366 24.4276 10.8423 36.9881 5.52636C51.4354 -0.576748 67.7154 -0.690722 82.2468 5.20952C96.7781 11.1098 108.37 22.5409 114.474 36.9882C120.577 51.4355 120.691 67.7155 114.79 82.2469C108.89 96.7782 97.459 108.371 83.0117 114.474C75.7314 117.554 67.9045 119.134 59.9993 119.119ZM59.9993 1.10917C46.4127 1.11689 33.2464 5.82112 22.7311 14.4249C12.2157 23.0286 4.9979 35.0029 2.30037 48.3191C-0.397173 61.6352 1.59145 75.4745 7.92934 87.4923C14.2672 99.5101 24.5647 108.968 37.0772 114.262C51.4579 120.283 67.639 120.358 82.0746 114.469C96.5101 108.581 108.023 97.2104 114.09 82.849C120.156 68.4875 120.283 52.3068 114.44 37.8525C108.598 23.3982 97.2645 11.8492 82.9226 5.73654C75.6706 2.66776 67.8739 1.09389 59.9993 1.10917V1.10917Z" fill="#838383"/>
</g>
<g style="mix-blend-mode:overlay" opacity="0.49">
<path d="M59.9993 114.198C47.4959 114.19 35.3798 109.86 25.7032 101.942C16.0266 94.0236 9.38455 83.0039 6.90209 70.7494C4.41963 58.4949 6.2494 45.759 12.0815 34.6991C17.9135 23.6391 27.3893 14.9351 38.9037 10.0614C52.1483 4.46554 67.0734 4.3603 80.3955 9.7688C93.7177 15.1773 104.346 25.6565 109.942 38.9011C115.537 52.1457 115.643 67.0707 110.234 80.3929C104.826 93.7151 94.3464 104.343 81.1018 109.939C74.426 112.764 67.2485 114.213 59.9993 114.198V114.198ZM59.9993 6.03025C47.5486 6.03848 35.4834 10.3502 25.8475 18.2352C16.2116 26.1201 9.59752 37.0934 7.12553 49.2964C4.65355 61.4993 6.47567 74.1816 12.2832 85.1949C18.0908 96.2083 27.5268 104.876 38.9928 109.729C52.168 115.225 66.984 115.279 80.199 109.879C93.414 104.479 103.952 94.0643 109.507 80.9138C115.063 67.7632 115.183 52.9476 109.842 39.7087C104.5 26.4697 94.1327 15.8854 81.007 10.2715C74.3612 7.45863 67.216 6.01606 59.9993 6.03025V6.03025Z" fill="#474747"/>
</g>
<path d="M102.501 51.2978C102.389 50.7358 102.266 50.1779 102.132 49.6243C101.18 45.6727 99.6804 41.8734 97.6776 38.3363C97.395 37.839 97.1038 37.3479 96.8037 36.8628C89.0591 24.3571 75.2146 16.0264 59.4226 16.0264C50.7642 16.0118 42.2964 18.5677 35.092 23.3702C34.6579 23.6603 34.2284 23.9577 33.8035 24.2623C28.0262 28.4137 23.338 33.9001 20.1384 40.2542C19.9046 40.7202 19.6785 41.1909 19.4599 41.6661C16.828 47.4087 15.4699 53.6529 15.479 59.97C15.479 61.4168 15.548 62.8432 15.6858 64.2489C15.6354 64.516 15.6097 64.7871 15.6093 65.0588C15.6084 65.7001 15.7508 66.3335 16.0262 66.9127C16.1785 67.8936 16.3658 68.863 16.5882 69.821V69.829C16.6842 70.2151 20.9803 87.7274 36.7883 91.04C39.5103 91.6111 42.5717 91.7596 46.0122 91.329C69.67 88.3591 83.1877 71.1335 82.8576 51.5982L59.5962 35.773L36.5336 51.2681C36.5336 51.2681 36.2034 70.64 49.5556 81.5202L55.821 78.9649C55.821 78.9649 43.1268 72.4539 42.799 54.2369L59.5962 42.5319L77.0057 54.1546C77.0057 54.1546 77.0057 68.7438 67.1147 75.9984C67.1147 75.9984 49.029 90.2769 34.3084 84.4056C34.3084 84.4056 25.5026 81.0553 22.2094 68.7564C22.9377 68.3121 23.519 67.663 23.8806 66.8902C24.2422 66.1175 24.368 65.2553 24.2423 64.4114C24.1167 63.5675 23.7451 62.7794 23.1741 62.1455C22.6031 61.5116 21.8579 61.06 21.0317 60.8472C21.0065 60.302 20.9917 59.7457 20.9871 59.1784C21.0834 54.0863 22.1948 49.0646 24.2563 44.4075C26.4874 45.0643 28.861 45.0613 31.0904 44.3988C33.3198 43.7364 35.3099 42.4429 36.8204 40.6744C38.3309 38.9059 39.2973 36.7381 39.603 34.4325C39.9086 32.1269 39.5404 29.7821 38.5428 27.6811C44.7586 23.6516 52.0104 21.5127 59.418 21.5242C72.9689 21.5242 84.8806 28.5355 91.7263 39.1291C90.5671 40.2474 89.766 41.6847 89.4246 43.2587C89.0831 44.8328 89.2167 46.4728 89.8084 47.9709C90.4 49.469 91.4231 50.7577 92.748 51.6738C94.0728 52.5898 95.6398 53.0918 97.2503 53.1163C98.2952 58.9468 97.9896 64.9392 96.3571 70.6331V70.6331C93.3712 78.7034 88.2983 89.1861 71.0704 95.7805C66.3528 97.5864 61.1326 98.2489 56.0437 98.2581C45.9791 98.2775 36.4136 95.745 32.1963 94.4565C30.7559 94.0156 29.9392 93.7198 29.9392 93.7198C41.5619 106.171 62.1686 103.903 62.1686 103.903C92.254 101.557 99.9781 76.8826 99.9781 76.8814C103.337 68.7911 104.214 59.8845 102.498 51.2943L102.501 51.2978ZM22.8034 65.0531C22.8034 65.4589 22.7167 65.8601 22.549 66.2297C22.3814 66.5992 22.1366 66.9287 21.8313 67.196C21.4975 65.6336 21.2648 64.0513 21.1345 62.459C21.6318 62.6862 22.0535 63.0515 22.3493 63.5113C22.6451 63.9712 22.8027 64.5063 22.8034 65.0531V65.0531ZM38.2241 32.8488C38.2238 34.4716 37.8496 36.0726 37.1305 37.5275C36.4115 38.9823 35.367 40.252 34.078 41.238C32.789 42.2239 31.2902 42.8997 29.6978 43.2128C28.1055 43.526 26.4624 43.4681 24.896 43.0436C27.7489 37.2427 32.0123 32.2506 37.2955 28.5253C37.9078 29.8843 38.2236 31.3582 38.2219 32.8488H38.2241ZM90.7256 44.981C90.7245 43.2891 91.3706 41.6608 92.5316 40.4301C94.5855 43.9022 96.0764 47.6778 96.9488 51.6165C95.2633 51.5061 93.6828 50.7592 92.5273 49.5272C91.3719 48.2952 90.7278 46.67 90.7256 44.981V44.981Z" fill="url(#paint1_linear_73_2341)"/>
<path d="M59.5963 50.1245L56.7554 55.0706V63.3864C53.605 64.339 52.3965 66.7938 52.3965 66.7938H66.7572C66.0981 65.0347 62.324 63.3498 62.324 63.3498V55.2534L59.5963 50.1245Z" fill="white"/>
<path d="M58.4413 69.3034L59.5961 74.1935L60.639 69.2475L61.6282 70.713L62.1411 67.9658H57.0488L57.5983 70.6399L58.4413 69.3034Z" fill="url(#paint2_linear_73_2341)"/>
<path d="M92.8881 71.3925C92.8881 70.6018 92.6536 69.8288 92.2143 69.1714C91.775 68.5139 91.1506 68.0015 90.42 67.6989C89.6895 67.3963 88.8856 67.3171 88.1101 67.4714C87.3346 67.6256 86.6222 68.0064 86.0631 68.5655C85.5039 69.1246 85.1232 69.837 84.9689 70.6125C84.8146 71.3881 84.8938 72.1919 85.1964 72.9225C85.499 73.653 86.0114 74.2774 86.6689 74.7167C87.3264 75.156 88.0993 75.3905 88.8901 75.3905C89.9504 75.3905 90.9673 74.9693 91.7171 74.2195C92.4668 73.4697 92.8881 72.4528 92.8881 71.3925V71.3925ZM86.3771 71.3925C86.3771 70.8955 86.5244 70.4096 86.8006 69.9964C87.0767 69.5831 87.4692 69.261 87.9284 69.0708C88.3876 68.8806 88.8929 68.8308 89.3803 68.9278C89.8678 69.0248 90.3156 69.2641 90.667 69.6155C91.0185 69.967 91.2578 70.4148 91.3548 70.9023C91.4518 71.3897 91.402 71.895 91.2118 72.3542C91.0216 72.8134 90.6995 73.2059 90.2862 73.482C89.873 73.7582 89.3871 73.9055 88.8901 73.9055C88.2236 73.9055 87.5844 73.6408 87.1131 73.1695C86.6418 72.6982 86.3771 72.059 86.3771 71.3925Z" fill="url(#paint3_linear_73_2341)"/>
</g>
<defs>
<radialGradient id="paint0_radial_73_2341" cx="0" cy="0" r="1" gradientUnits="userSpaceOnUse" gradientTransform="translate(81.2262 34.1631) scale(95.4136)">
<stop stop-color="#333333"/>
<stop offset="1" stop-color="#202020"/>
</radialGradient>
<linearGradient id="paint1_linear_73_2341" x1="59.418" y1="18.0506" x2="59.418" y2="132.656" gradientUnits="userSpaceOnUse">
<stop stop-color="#1AA79F"/>
<stop offset="1" stop-color="#B0DFD7"/>
</linearGradient>
<linearGradient id="paint2_linear_73_2341" x1="59.595" y1="68.3325" x2="59.595" y2="75.2182" gradientUnits="userSpaceOnUse">
<stop stop-color="#1AA79F"/>
<stop offset="1" stop-color="#B0DFD7"/>
</linearGradient>
<linearGradient id="paint3_linear_73_2341" x1="88.8889" y1="67.013" x2="88.8889" y2="75.1735" gradientUnits="userSpaceOnUse">
<stop stop-color="#1AA79F"/>
<stop offset="1" stop-color="#B0DFD7"/>
</linearGradient>
<clipPath id="clip0_73_2341">
<rect width="120" height="120" fill="white"/>
</clipPath>
</defs>
</svg>
