<svg width="151" height="91" viewBox="0 0 151 91" fill="none" xmlns="http://www.w3.org/2000/svg">
<path opacity="0.3" d="M47.083 91.125C62.4818 91.125 74.5019 88.3038 82.666 81.1096C90.8584 73.8906 94.958 62.46 94.958 45.75H92.958C92.958 62.165 88.9326 72.9219 81.3438 79.6091C73.7266 86.3212 62.3092 89.125 47.083 89.125V91.125ZM94.958 45.75C94.958 31.7588 91.9994 20.236 84.419 12.2192C76.8287 4.19198 64.7916 -0.125004 47.083 -0.125004V1.875C64.4994 1.875 75.8998 6.12051 82.9658 13.5933C90.0416 21.0765 92.958 31.9912 92.958 45.75H94.958ZM47.083 -0.125004C31.7437 -0.125004 19.7228 2.72862 11.5435 10.0028C3.33825 17.2999 -0.791992 28.8535 -0.791992 45.75H1.20801C1.20801 29.1465 5.26527 18.2626 12.8726 11.4972C20.5057 4.70888 31.9223 1.875 47.083 1.875V-0.125004ZM-0.791992 45.75C-0.791992 59.5521 2.10339 70.9523 9.65529 78.8923C17.2157 86.8413 29.2533 91.125 47.083 91.125V89.125C29.5377 89.125 18.1378 84.9087 11.1045 77.5139C4.06262 70.1102 1.20801 59.3229 1.20801 45.75H-0.791992ZM47.083 68.875C40.0484 68.875 34.8788 67.5414 31.4419 64.1478C28.0044 60.7537 26.083 55.0831 26.083 45.875H24.083C24.083 55.2919 26.0366 61.6213 30.0367 65.571C34.0372 69.5211 39.8676 70.875 47.083 70.875V68.875ZM26.083 45.875C26.083 37.9257 27.2739 32.0335 30.3957 28.124C33.4732 24.2699 38.6138 22.125 47.083 22.125V20.125C38.3022 20.125 32.4428 22.3551 28.8328 26.876C25.2671 31.3415 24.083 37.8243 24.083 45.875H26.083ZM47.083 22.125C54.1128 22.125 59.2781 23.4879 62.7152 26.9683C66.1591 30.4556 68.083 36.2862 68.083 45.75H70.083C70.083 36.0888 68.1319 29.6069 64.1383 25.563C60.1379 21.5121 54.3032 20.125 47.083 20.125V22.125ZM68.083 45.75C68.083 53.5133 66.9227 59.2425 63.8239 63.0396C60.7661 66.7865 55.6259 68.875 47.083 68.875V70.875C55.9151 70.875 61.775 68.7135 65.3734 64.3041C68.9308 59.945 70.083 53.6117 70.083 45.75H68.083ZM131.092 3V2H130.574L130.275 2.42332L131.092 3ZM99.7168 19.125L99.6941 18.1253L98.7168 18.1475V19.125H99.7168ZM99.7168 35.875H98.7168V36.9028L99.7442 36.8746L99.7168 35.875ZM125.842 30.25H126.842V28.5339L125.349 29.38L125.842 30.25ZM125.842 88H124.842V89H125.842V88ZM150.467 88V89H151.467V88H150.467ZM150.467 3H151.467V2H150.467V3ZM130.275 2.42332C127.332 6.59206 123.713 10.4144 118.84 13.2446C113.97 16.0724 107.795 17.9411 99.6941 18.1253L99.7395 20.1247C108.138 19.9339 114.651 17.9901 119.844 14.9741C125.033 11.9606 128.851 7.90793 131.909 3.57668L130.275 2.42332ZM98.7168 19.125V35.875H100.717V19.125H98.7168ZM99.7442 36.8746C108.898 36.6238 118.609 35.498 126.335 31.12L125.349 29.38C118.075 33.502 108.786 34.6261 99.6894 34.8754L99.7442 36.8746ZM124.842 30.25V88H126.842V30.25H124.842ZM125.842 89H150.467V87H125.842V89ZM151.467 88V3H149.467V88H151.467ZM150.467 2H131.092V4H150.467V2Z" fill="white"/>
</svg>
