<svg width="189" height="91" viewBox="0 0 189 91" fill="none" xmlns="http://www.w3.org/2000/svg">
<path opacity="0.3" d="M46.9087 91.125C62.3075 91.125 74.3276 88.3038 82.4917 81.1096C90.6841 73.8906 94.7837 62.46 94.7837 45.75H92.7837C92.7837 62.165 88.7583 72.9219 81.1694 79.6091C73.5523 86.3212 62.1349 89.125 46.9087 89.125V91.125ZM94.7837 45.75C94.7837 31.7588 91.8251 20.236 84.2447 12.2192C76.6544 4.19198 64.6173 -0.125004 46.9087 -0.125004V1.875C64.3251 1.875 75.7255 6.12051 82.7915 13.5933C89.8673 21.0765 92.7837 31.9912 92.7837 45.75H94.7837ZM46.9087 -0.125004C31.5694 -0.125004 19.5485 2.72862 11.3691 10.0028C3.16393 17.2999 -0.966309 28.8535 -0.966309 45.75H1.03369C1.03369 29.1465 5.09095 18.2626 12.6982 11.4972C20.3314 4.70888 31.748 1.875 46.9087 1.875V-0.125004ZM-0.966309 45.75C-0.966309 59.5521 1.92908 70.9523 9.48097 78.8923C17.0414 86.8413 29.079 91.125 46.9087 91.125V89.125C29.3634 89.125 17.9635 84.9087 10.9302 77.5139C3.88831 70.1102 1.03369 59.3229 1.03369 45.75H-0.966309ZM46.9087 68.875C39.8741 68.875 34.7045 67.5414 31.2676 64.1478C27.8301 60.7537 25.9087 55.0831 25.9087 45.875H23.9087C23.9087 55.2919 25.8623 61.6213 29.8623 65.571C33.8629 69.5211 39.6933 70.875 46.9087 70.875V68.875ZM25.9087 45.875C25.9087 37.9257 27.0996 32.0335 30.2214 28.124C33.2989 24.2699 38.4395 22.125 46.9087 22.125V20.125C38.1279 20.125 32.2685 22.3551 28.6585 26.876C25.0928 31.3415 23.9087 37.8243 23.9087 45.875H25.9087ZM46.9087 22.125C53.9385 22.125 59.1038 23.4879 62.5409 26.9683C65.9848 30.4556 67.9087 36.2862 67.9087 45.75H69.9087C69.9087 36.0888 67.9576 29.6069 63.964 25.563C59.9636 21.5121 54.1289 20.125 46.9087 20.125V22.125ZM67.9087 45.75C67.9087 53.5133 66.7484 59.2425 63.6496 63.0396C60.5917 66.7865 55.4516 68.875 46.9087 68.875V70.875C55.7408 70.875 61.6007 68.7135 65.1991 64.3041C68.7565 59.945 69.9087 53.6117 69.9087 45.75H67.9087ZM130.697 68.25L130.104 67.4444L127.649 69.25H130.697V68.25ZM150.572 60.375L150.3 59.4127L150.295 59.414L150.572 60.375ZM103.572 33.25H102.572V34.25H103.572V33.25ZM126.822 33.25V34.25H127.822V33.25H126.822ZM138.697 45.5L139 46.453L139.007 46.4507L138.697 45.5ZM101.072 88H100.072V89H101.072V88ZM188.197 88V89H189.197V88H188.197ZM188.197 68.25H189.197V67.25H188.197V68.25ZM131.289 69.0556C135.368 66.0565 141.681 63.9731 150.848 61.336L150.295 59.414C141.212 62.0269 134.526 64.1935 130.104 67.4444L131.289 69.0556ZM150.844 61.3372C163.194 57.8443 172.474 54.6777 178.65 49.9336C181.763 47.5416 184.103 44.7399 185.655 41.2914C187.205 37.8507 187.947 33.82 187.947 29H185.947C185.947 33.6175 185.236 37.3524 183.832 40.4703C182.431 43.5804 180.318 46.1302 177.431 48.3476C171.607 52.8223 162.7 55.9057 150.3 59.4127L150.844 61.3372ZM187.947 29C187.947 20.1013 184.703 12.7743 177.572 7.71563C170.501 2.69926 159.727 -5.72205e-06 144.822 -5.72205e-06V1.99999C159.542 1.99999 169.83 4.67574 176.415 9.34687C182.94 13.9757 185.947 20.6487 185.947 29H187.947ZM144.822 -5.72205e-06C132.627 -5.72205e-06 122.1 1.8487 114.589 6.34514C107 10.8891 102.572 18.0937 102.572 28.5H104.572C104.572 18.7813 108.644 12.2359 115.617 8.0611C122.669 3.83879 132.766 1.99999 144.822 1.99999V-5.72205e-06ZM102.572 28.5V33.25H104.572V28.5H102.572ZM103.572 34.25H126.822V32.25H103.572V34.25ZM127.822 33.25V31H125.822V33.25H127.822ZM127.822 31C127.822 28.6384 128.583 26.5521 130.964 24.9927C133.436 23.3727 137.76 22.25 145.072 22.25V20.25C137.634 20.25 132.832 21.3773 129.868 23.3198C126.81 25.3229 125.822 28.1116 125.822 31H127.822ZM145.072 22.25C150.158 22.25 154.289 22.8139 157.116 24.1397C158.514 24.7955 159.554 25.6197 160.246 26.6185C160.933 27.6097 161.322 28.8351 161.322 30.375H163.322C163.322 28.4774 162.835 26.8435 161.89 25.4791C160.949 24.1225 159.598 23.0951 157.965 22.329C154.729 20.8111 150.235 20.25 145.072 20.25V22.25ZM161.322 30.375C161.322 32.0297 160.962 33.3299 160.221 34.4563C159.469 35.5988 158.275 36.6401 156.477 37.6815C152.84 39.7877 147.057 41.722 138.387 44.5493L139.007 46.4507C147.586 43.653 153.616 41.6498 157.479 39.4122C159.431 38.2818 160.909 37.0496 161.892 35.5554C162.885 34.0451 163.322 32.3453 163.322 30.375H161.322ZM138.394 44.547C123.454 49.2978 113.806 53.7678 107.936 60.3169C102.017 66.9215 100.072 75.4791 100.072 88H102.072C102.072 75.6459 104.002 67.7035 109.426 61.6518C114.9 55.5447 124.065 51.2022 139 46.453L138.394 44.547ZM101.072 89H188.197V87H101.072V89ZM189.197 88V68.25H187.197V88H189.197ZM188.197 67.25H130.697V69.25H188.197V67.25Z" fill="white"/>
</svg>
