<svg width="191" height="91" viewBox="0 0 191 91" fill="none" xmlns="http://www.w3.org/2000/svg">
<path opacity="0.3" d="M47.2983 91.125C62.6972 91.125 74.7172 88.3038 82.8813 81.1096C91.0738 73.8906 95.1733 62.46 95.1733 45.75H93.1733C93.1733 62.165 89.1479 72.9219 81.5591 79.6091C73.9419 86.3212 62.5245 89.125 47.2983 89.125V91.125ZM95.1733 45.75C95.1733 31.7588 92.2148 20.236 84.6343 12.2192C77.0441 4.19198 65.007 -0.125004 47.2983 -0.125004V1.875C64.7147 1.875 76.1151 6.12051 83.1811 13.5933C90.2569 21.0765 93.1733 31.9912 93.1733 45.75H95.1733ZM47.2983 -0.125004C31.9591 -0.125004 19.9382 2.72862 11.7588 10.0028C3.55358 17.2999 -0.57666 28.8535 -0.57666 45.75H1.42334C1.42334 29.1465 5.4806 18.2626 13.0879 11.4972C20.721 4.70888 32.1376 1.875 47.2983 1.875V-0.125004ZM-0.57666 45.75C-0.57666 59.5521 2.31872 70.9523 9.87062 78.8923C17.431 86.8413 29.4687 91.125 47.2983 91.125V89.125C29.753 89.125 18.3531 84.9087 11.3198 77.5139C4.27796 70.1102 1.42334 59.3229 1.42334 45.75H-0.57666ZM47.2983 68.875C40.2637 68.875 35.0941 67.5414 31.6572 64.1478C28.2197 60.7537 26.2983 55.0831 26.2983 45.875H24.2983C24.2983 55.2919 26.252 61.6213 30.252 65.571C34.2526 69.5211 40.0829 70.875 47.2983 70.875V68.875ZM26.2983 45.875C26.2983 37.9257 27.4892 32.0335 30.611 28.124C33.6886 24.2699 38.8291 22.125 47.2983 22.125V20.125C38.5176 20.125 32.6581 22.3551 29.0482 26.876C25.4825 31.3415 24.2983 37.8243 24.2983 45.875H26.2983ZM47.2983 22.125C54.3282 22.125 59.4935 23.4879 62.9306 26.9683C66.3745 30.4556 68.2983 36.2862 68.2983 45.75H70.2983C70.2983 36.0888 68.3472 29.6069 64.3536 25.563C60.3532 21.5121 54.5185 20.125 47.2983 20.125V22.125ZM68.2983 45.75C68.2983 53.5133 67.138 59.2425 64.0392 63.0396C60.9814 66.7865 55.8412 68.875 47.2983 68.875V70.875C56.1305 70.875 61.9903 68.7135 65.5887 64.3041C69.1462 59.945 70.2983 53.6117 70.2983 45.75H68.2983ZM170.336 41.75L170.076 40.7844L170.102 42.7221L170.336 41.75ZM103.836 29.375H102.836V30.375H103.836V29.375ZM127.836 29.375V30.375H128.836V29.375H127.836ZM137.961 36.25V35.25H136.961V36.25H137.961ZM137.961 52.5H136.961V53.5H137.961V52.5ZM124.586 57.5H125.586V56.5H124.586V57.5ZM100.836 57.5V56.5H99.8364V57.5H100.836ZM170.596 42.7156C175.558 41.3797 179.721 39.4093 182.647 36.4003C185.601 33.3622 187.211 29.351 187.211 24.125H185.211C185.211 28.899 183.759 32.3878 181.213 35.006C178.639 37.6532 174.865 39.4953 170.076 40.7844L170.596 42.7156ZM187.211 24.125C187.211 16.8999 183.998 10.7686 177.13 6.49473C170.325 2.25957 159.984 -0.125004 145.711 -0.125004V1.875C159.814 1.875 169.723 4.24042 176.074 8.19276C182.362 12.1064 185.211 17.6001 185.211 24.125H187.211ZM145.711 -0.125004C132.442 -0.125004 121.765 2.04013 114.372 6.4374C106.915 10.8729 102.836 17.5649 102.836 26.375H104.836C104.836 18.31 108.508 12.2521 115.394 8.15634C122.345 4.02236 132.606 1.875 145.711 1.875V-0.125004ZM102.836 26.375V29.375H104.836V26.375H102.836ZM103.836 30.375H127.836V28.375H103.836V30.375ZM128.836 29.375V28.375H126.836V29.375H128.836ZM128.836 28.375C128.836 27.4821 128.946 26.6356 129.29 25.8552C129.629 25.0893 130.221 24.3262 131.286 23.6363C133.471 22.222 137.63 21.125 145.461 21.125V19.125C137.543 19.125 132.89 20.2155 130.199 21.9574C128.827 22.8457 127.966 23.9029 127.461 25.0471C126.962 26.1769 126.836 27.3304 126.836 28.375H128.836ZM145.461 21.125C150.565 21.125 154.683 21.566 157.495 22.6938C158.888 23.2521 159.901 23.9561 160.565 24.8029C161.219 25.6352 161.586 26.67 161.586 28H163.586C163.586 26.2675 163.095 24.7867 162.139 23.5682C161.194 22.3642 159.848 21.4822 158.24 20.8375C155.052 19.559 150.608 19.125 145.461 19.125V21.125ZM161.586 28C161.586 29.3831 161.237 30.4694 160.611 31.3436C159.979 32.2266 159.013 32.9636 157.669 33.5529C154.948 34.7464 150.874 35.25 145.586 35.25V37.25C150.924 37.25 155.35 36.7536 158.472 35.3846C160.05 34.6926 161.342 33.7578 162.237 32.508C163.139 31.2493 163.586 29.7419 163.586 28H161.586ZM145.586 35.25H137.961V37.25H145.586V35.25ZM136.961 36.25V52.5H138.961V36.25H136.961ZM137.961 53.5H145.461V51.5H137.961V53.5ZM145.461 53.5C148.99 53.5 153.79 53.5062 157.701 54.5594C159.651 55.0843 161.287 55.8466 162.424 56.9189C163.529 57.9614 164.211 59.3393 164.211 61.25H166.211C166.211 58.7857 165.3 56.8823 163.796 55.4639C162.324 54.0753 160.334 53.197 158.221 52.6281C154.008 51.4938 148.933 51.5 145.461 51.5V53.5ZM164.211 61.25C164.211 62.4592 163.925 63.5406 163.314 64.4966C162.7 65.4568 161.722 66.3479 160.25 67.1126C157.277 68.6576 152.408 69.625 144.961 69.625V71.625C152.515 71.625 157.771 70.6549 161.173 68.8874C162.888 67.9958 164.16 66.887 164.999 65.5737C165.841 64.2563 166.211 62.7908 166.211 61.25H164.211ZM144.961 69.625C136.024 69.625 131.203 68.1574 128.625 66.2167C126.134 64.3417 125.586 61.9026 125.586 59.375H123.586C123.586 62.2224 124.226 65.4083 127.423 67.8146C130.532 70.1551 135.899 71.625 144.961 71.625V69.625ZM125.586 59.375V57.5H123.586V59.375H125.586ZM124.586 56.5H100.836V58.5H124.586V56.5ZM99.8364 57.5V62.375H101.836V57.5H99.8364ZM99.8364 62.375C99.8364 71.2804 103.731 78.4726 111.439 83.39C119.089 88.2696 130.433 90.875 145.336 90.875V88.875C130.615 88.875 119.709 86.2929 112.515 81.7038C105.38 77.1524 101.836 70.5946 101.836 62.375H99.8364ZM145.336 90.875C158.595 90.875 169.978 88.9004 178.083 84.4549C186.256 79.9718 191.086 72.9686 191.086 63.125H189.086C189.086 72.1564 184.729 78.5282 177.121 82.7014C169.444 86.9121 158.453 88.875 145.336 88.875V90.875ZM191.086 63.125C191.086 57.9431 189.722 53.2263 186.409 49.3503C183.106 45.4856 177.954 42.56 170.571 40.7779L170.102 42.7221C177.219 44.44 181.942 47.2019 184.889 50.6497C187.826 54.0862 189.086 58.3069 189.086 63.125H191.086Z" fill="white"/>
</svg>
