<svg width="170" height="105" viewBox="0 0 312 144" fill="none" xmlns="http://www.w3.org/2000/svg">
<path opacity="0.3" d="M75.2 144.4C99.7863 144.4 118.838 139.891 131.736 128.525C144.663 117.134 151.2 99.0475 151.2 72.4H149.2C149.2 98.7525 142.737 116.166 130.414 127.025C118.062 137.909 99.6137 142.4 75.2 142.4V144.4ZM151.2 72.4C151.2 50.0838 146.479 31.8298 134.502 19.1629C122.514 6.48573 103.446 -0.400005 75.2 -0.400005V1.59999C103.154 1.59999 121.586 8.41426 133.048 20.537C144.521 32.6702 149.2 50.3162 149.2 72.4H151.2ZM75.2 -0.400005C50.7107 -0.400005 31.6586 4.15987 18.7355 15.6527C5.78649 27.1686 -0.799999 45.4535 -0.799999 72.4H1.2C1.2 45.7465 7.71351 28.1314 20.0645 17.1472C32.4414 6.14012 50.8893 1.59999 75.2 1.59999V-0.400005ZM-0.799999 72.4C-0.799999 94.4146 3.82038 112.471 15.7504 125.014C27.689 137.566 46.7578 144.4 75.2 144.4V142.4C47.0422 142.4 28.611 135.634 17.1996 123.636C5.77962 111.629 1.2 94.1854 1.2 72.4H-0.799999ZM75.2 110C63.8904 110 55.4208 107.86 49.7526 102.263C44.0839 96.6662 41 87.3956 41 72.6H39C39 87.6044 42.1161 97.5338 48.3474 103.687C54.5792 109.84 63.7096 112 75.2 112V110ZM41 72.6C41 59.8507 42.9034 50.246 48.0314 43.824C53.1152 37.4574 61.5558 34 75.2 34V32C61.2442 32 52.0848 35.5426 46.4686 42.576C40.8966 49.554 39 59.7493 39 72.6H41ZM75.2 34C86.5048 34 94.9701 36.1879 100.638 41.9277C106.314 47.6743 109.4 57.1987 109.4 72.4H111.4C111.4 57.0013 108.286 46.8257 102.062 40.5223C95.8299 34.2121 86.6952 32 75.2 32V34ZM109.4 72.4C109.4 84.8508 107.546 94.1987 102.45 100.443C97.3955 106.637 88.9554 110 75.2 110V112C89.2446 112 98.4045 108.563 104 101.707C109.554 94.9012 111.4 84.9492 111.4 72.4H109.4ZM280.061 66L279.801 65.0344L279.826 66.9721L280.061 66ZM173.661 46.2H172.661V47.2H173.661V46.2ZM212.061 46.2V47.2H213.061V46.2H212.061ZM228.261 57.2V56.2H227.261V57.2H228.261ZM228.261 83.2H227.261V84.2H228.261V83.2ZM206.861 91.2H207.861V90.2H206.861V91.2ZM168.861 91.2V90.2H167.861V91.2H168.861ZM280.321 66.9656C288.208 64.8422 294.752 61.7281 299.328 57.0221C303.932 52.2872 306.461 46.026 306.461 37.8H304.461C304.461 45.574 302.09 51.3128 297.894 55.6279C293.67 59.9719 287.514 62.9578 279.801 65.0344L280.321 66.9656ZM306.461 37.8C306.461 26.4499 301.429 16.8311 290.614 10.101C279.862 3.40958 263.446 -0.400005 240.661 -0.400005V1.59999C263.276 1.59999 279.26 5.39041 289.558 11.799C299.793 18.1689 304.461 27.1501 304.461 37.8H306.461ZM240.661 -0.400005C219.479 -0.400005 202.521 3.05888 190.825 10.0155C179.064 17.0104 172.661 27.5275 172.661 41.4H174.661C174.661 28.2725 180.658 18.3896 191.847 11.7345C203.101 5.04111 219.643 1.59999 240.661 1.59999V-0.400005ZM172.661 41.4V46.2H174.661V41.4H172.661ZM173.661 47.2H212.061V45.2H173.661V47.2ZM213.061 46.2V44.6H211.061V46.2H213.061ZM213.061 44.6C213.061 43.1258 213.24 41.6794 213.838 40.3259C214.43 38.9869 215.458 37.6778 217.254 36.5144C220.901 34.1533 227.705 32.4 240.261 32.4V30.4C227.617 30.4 220.321 32.1467 216.167 34.8356C214.064 36.1972 212.767 37.8006 212.009 39.5178C211.257 41.2206 211.061 42.9742 211.061 44.6H213.061ZM240.261 32.4C248.44 32.4 255.127 33.1035 259.739 34.9531C262.031 35.8724 263.752 37.0522 264.899 38.5142C266.035 39.9617 266.661 41.7512 266.661 44H268.661C268.661 41.3488 267.912 39.1133 266.473 37.2795C265.045 35.4603 262.991 34.1025 260.483 33.0968C255.495 31.0965 248.482 30.4 240.261 30.4V32.4ZM266.661 44C266.661 46.3206 266.073 48.185 264.989 49.699C263.898 51.2219 262.255 52.4605 260.034 53.4342C255.56 55.3964 248.936 56.2 240.461 56.2V58.2C248.986 58.2 255.962 57.4036 260.838 55.2658C263.292 54.1895 265.261 52.7531 266.615 50.8635C267.974 48.965 268.661 46.6794 268.661 44H266.661ZM240.461 56.2H228.261V58.2H240.461V56.2ZM227.261 57.2V83.2H229.261V57.2H227.261ZM228.261 84.2H240.261V82.2H228.261V84.2ZM240.261 84.2C245.89 84.2 253.652 84.2062 260.001 85.9156C263.169 86.7686 265.893 88.0231 267.812 89.8337C269.701 91.6146 270.861 93.9768 270.861 97.2H272.861C272.861 93.4232 271.471 90.5354 269.185 88.3788C266.929 86.2518 263.853 84.8813 260.521 83.9844C253.87 82.1938 245.832 82.2 240.261 82.2V84.2ZM270.861 97.2C270.861 99.2342 270.378 101.08 269.331 102.718C268.281 104.36 266.628 105.851 264.2 107.113C259.314 109.651 251.408 111.2 239.461 111.2V113.2C251.514 113.2 259.808 111.649 265.122 108.887C267.794 107.499 269.741 105.79 271.016 103.795C272.294 101.795 272.861 99.5658 272.861 97.2H270.861ZM239.461 111.2C225.124 111.2 217.247 108.851 212.962 105.626C208.765 102.467 207.861 98.3401 207.861 94.2H205.861C205.861 98.6599 206.857 103.533 211.76 107.224C216.575 110.849 224.998 113.2 239.461 113.2V111.2ZM207.861 94.2V91.2H205.861V94.2H207.861ZM206.861 90.2H168.861V92.2H206.861V90.2ZM167.861 91.2V99H169.861V91.2H167.861ZM167.861 99C167.861 113.043 173.986 124.36 186.148 132.118C198.251 139.838 216.27 144 240.061 144V142C216.452 142 198.871 137.862 187.224 130.432C175.636 123.04 169.861 112.357 169.861 99H167.861ZM240.061 144C261.232 144 279.328 140.844 292.167 133.802C305.074 126.722 312.661 115.706 312.661 100.2H310.661C310.661 114.894 303.548 125.278 291.205 132.048C278.794 138.856 261.09 142 240.061 142V144ZM312.661 100.2C312.661 92.0181 310.509 84.62 305.321 78.5503C300.143 72.4919 292.029 67.86 280.296 65.0279L279.826 66.9721C291.293 69.74 298.979 74.2081 303.801 79.8497C308.613 85.4799 310.661 92.3819 310.661 100.2H312.661Z" fill="white"/>
</svg>
