<svg width="170" height="105" viewBox="0 0 321 144" fill="none" xmlns="http://www.w3.org/2000/svg">
<path opacity="0.3" d="M75.2 144.4C99.7863 144.4 118.838 139.891 131.736 128.525C144.663 117.134 151.2 99.0475 151.2 72.4H149.2C149.2 98.7525 142.737 116.166 130.414 127.025C118.062 137.909 99.6137 142.4 75.2 142.4V144.4ZM151.2 72.4C151.2 50.0838 146.479 31.8298 134.502 19.1629C122.514 6.48573 103.446 -0.400005 75.2 -0.400005V1.59999C103.154 1.59999 121.586 8.41426 133.048 20.537C144.521 32.6702 149.2 50.3162 149.2 72.4H151.2ZM75.2 -0.400005C50.7107 -0.400005 31.6586 4.15987 18.7355 15.6527C5.78649 27.1686 -0.799999 45.4535 -0.799999 72.4H1.2C1.2 45.7465 7.71351 28.1314 20.0645 17.1472C32.4414 6.14012 50.8893 1.59999 75.2 1.59999V-0.400005ZM-0.799999 72.4C-0.799999 94.4146 3.82038 112.471 15.7504 125.014C27.689 137.566 46.7578 144.4 75.2 144.4V142.4C47.0422 142.4 28.611 135.634 17.1996 123.636C5.77962 111.629 1.2 94.1854 1.2 72.4H-0.799999ZM75.2 110C63.8904 110 55.4208 107.86 49.7526 102.263C44.0839 96.6662 41 87.3956 41 72.6H39C39 87.6044 42.1161 97.5338 48.3474 103.687C54.5792 109.84 63.7096 112 75.2 112V110ZM41 72.6C41 59.8507 42.9034 50.246 48.0314 43.824C53.1152 37.4574 61.5558 34 75.2 34V32C61.2442 32 52.0848 35.5426 46.4686 42.576C40.8966 49.554 39 59.7493 39 72.6H41ZM75.2 34C86.5048 34 94.9701 36.1879 100.638 41.9277C106.314 47.6743 109.4 57.1987 109.4 72.4H111.4C111.4 57.0013 108.286 46.8257 102.062 40.5223C95.8299 34.2121 86.6952 32 75.2 32V34ZM109.4 72.4C109.4 84.8508 107.546 94.1987 102.45 100.443C97.3955 106.637 88.9554 110 75.2 110V112C89.2446 112 98.4045 108.563 104 101.707C109.554 94.9012 111.4 84.9492 111.4 72.4H109.4ZM295.014 84.2H294.014V85.2H295.014V84.2ZM295.014 4H296.014V3H295.014V4ZM256.614 4V3H256.245L255.964 3.23977L256.614 4ZM168.614 79.2L167.964 78.4398L167.614 78.7392V79.2H168.614ZM168.614 114.8H167.614V115.8H168.614V114.8ZM257.014 114.8H258.014V113.8H257.014V114.8ZM257.014 140.2H256.014V141.2H257.014V140.2ZM295.014 140.2V141.2H296.014V140.2H295.014ZM295.014 114.8V113.8H294.014V114.8H295.014ZM320.014 114.8V115.8H321.014V114.8H320.014ZM320.014 84.2H321.014V83.2H320.014V84.2ZM257.814 84.2V85.2H258.814V84.2H257.814ZM207.814 84.2L207.134 83.467L205.266 85.2H207.814V84.2ZM257.814 37.8H258.814V35.5077L257.134 37.067L257.814 37.8ZM296.014 84.2V4H294.014V84.2H296.014ZM295.014 3H256.614V5H295.014V3ZM255.964 3.23977L167.964 78.4398L169.264 79.9602L257.264 4.76023L255.964 3.23977ZM167.614 79.2V114.8H169.614V79.2H167.614ZM168.614 115.8H257.014V113.8H168.614V115.8ZM256.014 114.8V140.2H258.014V114.8H256.014ZM257.014 141.2H295.014V139.2H257.014V141.2ZM296.014 140.2V114.8H294.014V140.2H296.014ZM295.014 115.8H320.014V113.8H295.014V115.8ZM321.014 114.8V84.2H319.014V114.8H321.014ZM320.014 83.2H295.014V85.2H320.014V83.2ZM257.814 83.2H207.814V85.2H257.814V83.2ZM208.494 84.933L258.494 38.533L257.134 37.067L207.134 83.467L208.494 84.933ZM256.814 37.8V84.2H258.814V37.8H256.814Z" fill="white"/>
</svg>
