<svg width="196" height="91" viewBox="0 0 196 91" fill="none" xmlns="http://www.w3.org/2000/svg">
<path opacity="0.3" d="M47.0776 91.125C62.4765 91.125 74.4965 88.3038 82.6606 81.1096C90.8531 73.8906 94.9526 62.46 94.9526 45.75H92.9526C92.9526 62.165 88.9272 72.9219 81.3384 79.6091C73.7212 86.3212 62.3038 89.125 47.0776 89.125V91.125ZM94.9526 45.75C94.9526 31.7588 91.9941 20.236 84.4136 12.2192C76.8234 4.19198 64.7863 -0.125004 47.0776 -0.125004V1.875C64.494 1.875 75.8944 6.12051 82.9604 13.5933C90.0362 21.0765 92.9526 31.9912 92.9526 45.75H94.9526ZM47.0776 -0.125004C31.7384 -0.125004 19.7174 2.72862 11.5381 10.0028C3.33288 17.2999 -0.797363 28.8535 -0.797363 45.75H1.20264C1.20264 29.1465 5.2599 18.2626 12.8672 11.4972C20.5003 4.70888 31.9169 1.875 47.0776 1.875V-0.125004ZM-0.797363 45.75C-0.797363 59.5521 2.09802 70.9523 9.64992 78.8923C17.2103 86.8413 29.248 91.125 47.0776 91.125V89.125C29.5323 89.125 18.1324 84.9087 11.0991 77.5139C4.05725 70.1102 1.20264 59.3229 1.20264 45.75H-0.797363ZM47.0776 68.875C40.043 68.875 34.8734 67.5414 31.4365 64.1478C27.999 60.7537 26.0776 55.0831 26.0776 45.875H24.0776C24.0776 55.2919 26.0313 61.6213 30.0313 65.571C34.0318 69.5211 39.8622 70.875 47.0776 70.875V68.875ZM26.0776 45.875C26.0776 37.9257 27.2685 32.0335 30.3903 28.124C33.4679 24.2699 38.6084 22.125 47.0776 22.125V20.125C38.2969 20.125 32.4374 22.3551 28.8275 26.876C25.2617 31.3415 24.0776 37.8243 24.0776 45.875H26.0776ZM47.0776 22.125C54.1075 22.125 59.2728 23.4879 62.7099 26.9683C66.1538 30.4556 68.0776 36.2862 68.0776 45.75H70.0776C70.0776 36.0888 68.1265 29.6069 64.1329 25.563C60.1325 21.5121 54.2978 20.125 47.0776 20.125V22.125ZM68.0776 45.75C68.0776 53.5133 66.9173 59.2425 63.8185 63.0396C60.7607 66.7865 55.6205 68.875 47.0776 68.875V70.875C55.9098 70.875 61.7696 68.7135 65.368 64.3041C68.9255 59.945 70.0776 53.6117 70.0776 45.75H68.0776ZM179.461 53.125H178.461V54.125H179.461V53.125ZM179.461 3H180.461V2H179.461V3ZM155.461 3V2H155.092L154.812 2.23977L155.461 3ZM100.461 50L99.8118 49.2398L99.4614 49.5392V50H100.461ZM100.461 72.25H99.4614V73.25H100.461V72.25ZM155.711 72.25H156.711V71.25H155.711V72.25ZM155.711 88.125H154.711V89.125H155.711V88.125ZM179.461 88.125V89.125H180.461V88.125H179.461ZM179.461 72.25V71.25H178.461V72.25H179.461ZM195.086 72.25V73.25H196.086V72.25H195.086ZM195.086 53.125H196.086V52.125H195.086V53.125ZM156.211 53.125V54.125H157.211V53.125H156.211ZM124.961 53.125L124.281 52.392L122.414 54.125H124.961V53.125ZM156.211 24.125H157.211V21.8327L155.531 23.392L156.211 24.125ZM180.461 53.125V3H178.461V53.125H180.461ZM179.461 2H155.461V4H179.461V2ZM154.812 2.23977L99.8118 49.2398L101.111 50.7602L156.111 3.76023L154.812 2.23977ZM99.4614 50V72.25H101.461V50H99.4614ZM100.461 73.25H155.711V71.25H100.461V73.25ZM154.711 72.25V88.125H156.711V72.25H154.711ZM155.711 89.125H179.461V87.125H155.711V89.125ZM180.461 88.125V72.25H178.461V88.125H180.461ZM179.461 73.25H195.086V71.25H179.461V73.25ZM196.086 72.25V53.125H194.086V72.25H196.086ZM195.086 52.125H179.461V54.125H195.086V52.125ZM156.211 52.125H124.961V54.125H156.211V52.125ZM125.642 53.858L156.892 24.858L155.531 23.392L124.281 52.392L125.642 53.858ZM155.211 24.125V53.125H157.211V24.125H155.211Z" fill="white"/>
</svg>
