<svg width="170" height="105" viewBox="0 0 309 144" fill="none" xmlns="http://www.w3.org/2000/svg">
<path opacity="0.3" d="M75.2 144.4C99.7863 144.4 118.838 139.891 131.736 128.525C144.663 117.134 151.2 99.0475 151.2 72.4H149.2C149.2 98.7525 142.737 116.166 130.414 127.025C118.062 137.909 99.6137 142.4 75.2 142.4V144.4ZM151.2 72.4C151.2 50.0838 146.479 31.8298 134.502 19.1629C122.514 6.48573 103.446 -0.400005 75.2 -0.400005V1.59999C103.154 1.59999 121.586 8.41426 133.048 20.537C144.521 32.6702 149.2 50.3162 149.2 72.4H151.2ZM75.2 -0.400005C50.7107 -0.400005 31.6586 4.15987 18.7355 15.6527C5.78649 27.1686 -0.799999 45.4535 -0.799999 72.4H1.2C1.2 45.7465 7.71351 28.1314 20.0645 17.1472C32.4414 6.14012 50.8893 1.59999 75.2 1.59999V-0.400005ZM-0.799999 72.4C-0.799999 94.4146 3.82038 112.471 15.7504 125.014C27.689 137.566 46.7578 144.4 75.2 144.4V142.4C47.0422 142.4 28.611 135.634 17.1996 123.636C5.77962 111.629 1.2 94.1854 1.2 72.4H-0.799999ZM75.2 110C63.8904 110 55.4208 107.86 49.7526 102.263C44.0839 96.6662 41 87.3956 41 72.6H39C39 87.6044 42.1161 97.5338 48.3474 103.687C54.5792 109.84 63.7096 112 75.2 112V110ZM41 72.6C41 59.8507 42.9034 50.246 48.0314 43.824C53.1152 37.4574 61.5558 34 75.2 34V32C61.2442 32 52.0848 35.5426 46.4686 42.576C40.8966 49.554 39 59.7493 39 72.6H41ZM75.2 34C86.5048 34 94.9701 36.1879 100.638 41.9277C106.314 47.6743 109.4 57.1987 109.4 72.4H111.4C111.4 57.0013 108.286 46.8257 102.062 40.5223C95.8299 34.2121 86.6952 32 75.2 32V34ZM109.4 72.4C109.4 84.8508 107.546 94.1987 102.45 100.443C97.3955 106.637 88.9554 110 75.2 110V112C89.2446 112 98.4045 108.563 104 101.707C109.554 94.9012 111.4 84.9492 111.4 72.4H109.4ZM213.261 57.8L212.295 57.5407L211.699 59.7608L213.73 58.6833L213.261 57.8ZM219.061 36.2V35.2H218.294L218.095 35.9407L219.061 36.2ZM300.061 36.2V37.2H301.061V36.2H300.061ZM300.061 4H301.061V3H300.061V4ZM189.861 4V3H189.048L188.882 3.79594L189.861 4ZM173.061 84.6L172.082 84.396L171.831 85.6H173.061V84.6ZM209.661 84.6V85.6H210.177L210.476 85.1787L209.661 84.6ZM207.661 99.8H208.661V98.8H207.661V99.8ZM170.061 99.8V98.8H169.061V99.8H170.061ZM251.461 49C236.566 49 222.787 51.6133 212.792 56.9166L213.73 58.6833C223.335 53.5867 236.756 51 251.461 51V49ZM214.227 58.0593L220.027 36.4593L218.095 35.9407L212.295 57.5407L214.227 58.0593ZM219.061 37.2H300.061V35.2H219.061V37.2ZM301.061 36.2V4H299.061V36.2H301.061ZM300.061 3H189.861V5H300.061V3ZM188.882 3.79594L172.082 84.396L174.04 84.804L190.84 4.20405L188.882 3.79594ZM173.061 85.6H209.661V83.6H173.061V85.6ZM210.476 85.1787C214.574 79.4048 223.115 75.8 241.061 75.8V73.8C223.006 73.8 213.548 77.3952 208.845 84.0213L210.476 85.1787ZM241.061 75.8C250.641 75.8 258.063 76.8075 263.071 79.6218C265.549 81.0143 267.428 82.8453 268.697 85.2265C269.97 87.6161 270.661 90.62 270.661 94.4H272.661C272.661 90.38 271.926 87.0339 270.462 84.286C268.994 81.5297 266.823 79.4357 264.051 77.8782C258.559 74.7925 250.681 73.8 241.061 73.8V75.8ZM270.661 94.4C270.661 100.363 268.856 104.894 264.043 108.011C259.12 111.197 250.916 113 237.861 113V115C251.006 115 259.702 113.203 265.129 109.689C270.666 106.106 272.661 100.837 272.661 94.4H270.661ZM237.861 113C228.89 113 221.505 112.148 216.394 110.026C213.852 108.971 211.927 107.624 210.639 105.962C209.361 104.315 208.661 102.297 208.661 99.8H206.661C206.661 102.703 207.486 105.16 209.058 107.188C210.62 109.201 212.87 110.729 215.628 111.874C221.117 114.152 228.832 115 237.861 115V113ZM207.661 98.8H170.061V100.8H207.661V98.8ZM169.061 99.8C169.061 113.282 174.085 124.457 185.11 132.218C196.077 139.938 212.867 144.2 236.261 144.2V142.2C213.055 142.2 196.745 137.962 186.262 130.582C175.836 123.243 171.061 112.718 171.061 99.8H169.061ZM236.261 144.2C259.661 144.2 277.99 139.835 290.497 131.353C303.061 122.832 309.661 110.214 309.661 94H307.661C307.661 109.586 301.361 121.568 289.375 129.697C277.332 137.865 259.461 142.2 236.261 142.2V144.2ZM309.661 94C309.661 80.5705 305.276 69.2594 295.699 61.3297C286.152 53.4255 271.588 49 251.461 49V51C271.334 51 285.37 55.3745 294.423 62.8703C303.446 70.3406 307.661 81.0295 307.661 94H309.661Z" fill="white"/>
</svg>
