<svg width="189" height="91" viewBox="0 0 189 91" fill="none" xmlns="http://www.w3.org/2000/svg">
<path opacity="0.3" d="M47.2139 91.125C62.6127 91.125 74.6328 88.3038 82.7969 81.1096C90.9893 73.8906 95.0889 62.46 95.0889 45.75H93.0889C93.0889 62.165 89.0635 72.9219 81.4746 79.6091C73.8575 86.3212 62.4401 89.125 47.2139 89.125V91.125ZM95.0889 45.75C95.0889 31.7588 92.1303 20.236 84.5499 12.2192C76.9596 4.19198 64.9225 -0.125004 47.2139 -0.125004V1.875C64.6302 1.875 76.0306 6.12051 83.0966 13.5933C90.1725 21.0765 93.0889 31.9912 93.0889 45.75H95.0889ZM47.2139 -0.125004C31.8746 -0.125004 19.8537 2.72862 11.6743 10.0028C3.46911 17.2999 -0.661133 28.8535 -0.661133 45.75H1.33887C1.33887 29.1465 5.39613 18.2626 13.0034 11.4972C20.6366 4.70888 32.0531 1.875 47.2139 1.875V-0.125004ZM-0.661133 45.75C-0.661133 59.5521 2.23425 70.9523 9.78615 78.8923C17.3466 86.8413 29.3842 91.125 47.2139 91.125V89.125C29.6685 89.125 18.2687 84.9087 11.2353 77.5139C4.19348 70.1102 1.33887 59.3229 1.33887 45.75H-0.661133ZM47.2139 68.875C40.1793 68.875 35.0097 67.5414 31.5727 64.1478C28.1353 60.7537 26.2139 55.0831 26.2139 45.875H24.2139C24.2139 55.2919 26.1675 61.6213 30.1675 65.571C34.1681 69.5211 39.9985 70.875 47.2139 70.875V68.875ZM26.2139 45.875C26.2139 37.9257 27.4048 32.0335 30.5266 28.124C33.6041 24.2699 38.7446 22.125 47.2139 22.125V20.125C38.4331 20.125 32.5736 22.3551 28.9637 26.876C25.398 31.3415 24.2139 37.8243 24.2139 45.875H26.2139ZM47.2139 22.125C54.2437 22.125 59.409 23.4879 62.8461 26.9683C66.29 30.4556 68.2139 36.2862 68.2139 45.75H70.2139C70.2139 36.0888 68.2628 29.6069 64.2691 25.563C60.2688 21.5121 54.434 20.125 47.2139 20.125V22.125ZM68.2139 45.75C68.2139 53.5133 67.0535 59.2425 63.9548 63.0396C60.8969 66.7865 55.7567 68.875 47.2139 68.875V70.875C56.046 70.875 61.9058 68.7135 65.5042 64.3041C69.0617 59.945 70.2139 53.6117 70.2139 45.75H68.2139ZM128.502 36.625L127.536 36.3657L126.94 38.5858L128.971 37.5083L128.502 36.625ZM132.127 23.125V22.125H131.36L131.161 22.8657L132.127 23.125ZM182.752 23.125V24.125H183.752V23.125H182.752ZM182.752 3H183.752V2H182.752V3ZM113.877 3V2H113.064L112.898 2.79595L113.877 3ZM103.377 53.375L102.398 53.1709L102.147 54.375H103.377V53.375ZM126.252 53.375V54.375H126.769L127.067 53.9537L126.252 53.375ZM125.002 62.875H126.002V61.875H125.002V62.875ZM101.502 62.875V61.875H100.502V62.875H101.502ZM152.377 30.75C143.032 30.75 134.353 32.3883 128.033 35.7416L128.971 37.5083C134.901 34.3617 143.222 32.75 152.377 32.75V30.75ZM129.468 36.8843L133.093 23.3843L131.161 22.8657L127.536 36.3657L129.468 36.8843ZM132.127 24.125H182.752V22.125H132.127V24.125ZM183.752 23.125V3H181.752V23.125H183.752ZM182.752 2H113.877V4H182.752V2ZM112.898 2.79595L102.398 53.1709L104.356 53.579L114.856 3.20405L112.898 2.79595ZM103.377 54.375H126.252V52.375H103.377V54.375ZM127.067 53.9537C129.515 50.5048 134.682 48.25 145.877 48.25V46.25C134.572 46.25 128.489 48.4952 125.436 52.7962L127.067 53.9537ZM145.877 48.25C151.857 48.25 156.41 48.8825 159.45 50.5905C160.943 51.4299 162.063 52.525 162.819 53.9429C163.579 55.3692 164.002 57.1825 164.002 59.5H166.002C166.002 56.9425 165.535 54.787 164.584 53.0024C163.628 51.2094 162.217 49.8513 160.429 48.847C156.907 46.8675 151.897 46.25 145.877 46.25V48.25ZM164.002 59.5C164.002 63.1384 162.91 65.8319 160.037 67.6918C157.055 69.6221 152.02 70.75 143.877 70.75V72.75C152.109 72.75 157.637 71.6279 161.124 69.3707C164.719 67.0431 166.002 63.6116 166.002 59.5H164.002ZM143.877 70.75C138.281 70.75 133.727 70.2164 130.604 68.9202C129.055 68.2773 127.913 67.4689 127.159 66.4966C126.416 65.5382 126.002 64.36 126.002 62.875H124.002C124.002 64.765 124.541 66.3837 125.579 67.7222C126.606 69.0467 128.073 70.0352 129.837 70.7673C133.339 72.2211 138.223 72.75 143.877 72.75V70.75ZM125.002 61.875H101.502V63.875H125.002V61.875ZM100.502 62.875C100.502 71.4066 103.689 78.5128 110.692 83.4427C117.636 88.3314 128.22 91 142.877 91V89C128.408 89 118.305 86.3561 111.843 81.8073C105.44 77.2997 102.502 70.8434 102.502 62.875H100.502ZM142.877 91C157.539 91 169.081 88.2667 176.985 82.9057C184.945 77.507 189.127 69.5017 189.127 59.25H187.127C187.127 68.8733 183.246 76.243 175.863 81.2505C168.423 86.2958 157.34 89 142.877 89V91ZM189.127 59.25C189.127 50.7705 186.355 43.5844 180.265 38.5422C174.206 33.5255 165.004 30.75 152.377 30.75V32.75C164.75 32.75 173.423 35.4745 178.989 40.0828C184.524 44.6656 187.127 51.2295 187.127 59.25H189.127Z" fill="white"/>
</svg>
