<svg width="249" height="144" viewBox="0 0 249 144" fill="none" xmlns="http://www.w3.org/2000/svg">
<path opacity="0.3" d="M75.2 144.4C99.7863 144.4 118.838 139.891 131.736 128.525C144.663 117.134 151.2 99.0475 151.2 72.4H149.2C149.2 98.7525 142.737 116.166 130.414 127.025C118.062 137.909 99.6137 142.4 75.2 142.4V144.4ZM151.2 72.4C151.2 50.0838 146.479 31.8298 134.502 19.1629C122.514 6.48573 103.446 -0.400005 75.2 -0.400005V1.59999C103.154 1.59999 121.586 8.41426 133.048 20.537C144.521 32.6702 149.2 50.3162 149.2 72.4H151.2ZM75.2 -0.400005C50.7107 -0.400005 31.6586 4.15987 18.7355 15.6527C5.78649 27.1686 -0.799999 45.4535 -0.799999 72.4H1.2C1.2 45.7465 7.71351 28.1314 20.0645 17.1472C32.4414 6.14012 50.8893 1.59999 75.2 1.59999V-0.400005ZM-0.799999 72.4C-0.799999 94.4146 3.82038 112.471 15.7504 125.014C27.689 137.566 46.7578 144.4 75.2 144.4V142.4C47.0422 142.4 28.611 135.634 17.1996 123.636C5.77962 111.629 1.2 94.1854 1.2 72.4H-0.799999ZM75.2 110C63.8904 110 55.4208 107.86 49.7526 102.263C44.0839 96.6662 41 87.3956 41 72.6H39C39 87.6044 42.1161 97.5338 48.3474 103.687C54.5792 109.84 63.7096 112 75.2 112V110ZM41 72.6C41 59.8507 42.9034 50.246 48.0314 43.824C53.1152 37.4574 61.5558 34 75.2 34V32C61.2442 32 52.0848 35.5426 46.4686 42.576C40.8966 49.554 39 59.7493 39 72.6H41ZM75.2 34C86.5048 34 94.9701 36.1879 100.638 41.9277C106.314 47.6743 109.4 57.1987 109.4 72.4H111.4C111.4 57.0013 108.286 46.8257 102.062 40.5223C95.8299 34.2121 86.6952 32 75.2 32V34ZM109.4 72.4C109.4 84.8508 107.546 94.1987 102.45 100.443C97.3955 106.637 88.9554 110 75.2 110V112C89.2446 112 98.4045 108.563 104 101.707C109.554 94.9012 111.4 84.9492 111.4 72.4H109.4ZM217.614 4V3H217.096L216.797 3.42332L217.614 4ZM167.414 29.8L167.391 28.8003L166.414 28.8225V29.8H167.414ZM167.414 56.6H166.414V57.6278L167.441 57.5996L167.414 56.6ZM209.214 47.6H210.214V45.8839L208.721 46.73L209.214 47.6ZM209.214 140H208.214V141H209.214V140ZM248.614 140V141H249.614V140H248.614ZM248.614 4H249.614V3H248.614V4ZM216.797 3.42332C212.054 10.1421 206.204 16.3269 198.312 20.9102C190.424 25.4911 180.442 28.5036 167.391 28.8003L167.437 30.7997C180.786 30.4964 191.104 27.4088 199.316 22.6397C207.524 17.8731 213.574 11.4579 218.431 4.57668L216.797 3.42332ZM166.414 29.8V56.6H168.414V29.8H166.414ZM167.441 57.5996C182.07 57.1988 197.481 55.398 209.707 48.47L208.721 46.73C196.947 53.402 181.958 55.2011 167.387 55.6004L167.441 57.5996ZM208.214 47.6V140H210.214V47.6H208.214ZM209.214 141H248.614V139H209.214V141ZM249.614 140V4H247.614V140H249.614ZM248.614 3H217.614V5H248.614V3Z" fill="white"/>
</svg>
