<svg width="310" height="144" viewBox="0 0 310 144" fill="none" xmlns="http://www.w3.org/2000/svg">
<path opacity="0.3" d="M75.2 144.4C99.7863 144.4 118.838 139.891 131.736 128.525C144.663 117.134 151.2 99.0475 151.2 72.4H149.2C149.2 98.7525 142.737 116.166 130.414 127.025C118.062 137.909 99.6137 142.4 75.2 142.4V144.4ZM151.2 72.4C151.2 50.0838 146.479 31.8298 134.502 19.1629C122.514 6.48573 103.446 -0.400005 75.2 -0.400005V1.59999C103.154 1.59999 121.586 8.41426 133.048 20.537C144.521 32.6702 149.2 50.3162 149.2 72.4H151.2ZM75.2 -0.400005C50.7107 -0.400005 31.6586 4.15987 18.7355 15.6527C5.78649 27.1686 -0.799999 45.4535 -0.799999 72.4H1.2C1.2 45.7465 7.71351 28.1314 20.0645 17.1472C32.4414 6.14012 50.8893 1.59999 75.2 1.59999V-0.400005ZM-0.799999 72.4C-0.799999 94.4146 3.82038 112.471 15.7504 125.014C27.689 137.566 46.7578 144.4 75.2 144.4V142.4C47.0422 142.4 28.611 135.634 17.1996 123.636C5.77962 111.629 1.2 94.1854 1.2 72.4H-0.799999ZM75.2 110C63.8904 110 55.4208 107.86 49.7526 102.263C44.0839 96.6662 41 87.3956 41 72.6H39C39 87.6044 42.1161 97.5338 48.3474 103.687C54.5792 109.84 63.7096 112 75.2 112V110ZM41 72.6C41 59.8507 42.9034 50.246 48.0314 43.824C53.1152 37.4574 61.5558 34 75.2 34V32C61.2442 32 52.0848 35.5426 46.4686 42.576C40.8966 49.554 39 59.7493 39 72.6H41ZM75.2 34C86.5048 34 94.9701 36.1879 100.638 41.9277C106.314 47.6743 109.4 57.1987 109.4 72.4H111.4C111.4 57.0013 108.286 46.8257 102.062 40.5223C95.8299 34.2121 86.6952 32 75.2 32V34ZM109.4 72.4C109.4 84.8508 107.546 94.1987 102.45 100.443C97.3955 106.637 88.9554 110 75.2 110V112C89.2446 112 98.4045 108.563 104 101.707C109.554 94.9012 111.4 84.9492 111.4 72.4H109.4ZM217.261 108.4L216.669 107.594L214.213 109.4H217.261V108.4ZM249.061 95.8L248.789 94.8377L248.784 94.839L249.061 95.8ZM173.861 52.4H172.861V53.4H173.861V52.4ZM211.061 52.4V53.4H212.061V52.4H211.061ZM230.061 72L230.364 72.953L230.371 72.9507L230.061 72ZM169.861 140H168.861V141H169.861V140ZM309.261 140V141H310.261V140H309.261ZM309.261 108.4H310.261V107.4H309.261V108.4ZM217.853 109.206C224.482 104.331 234.695 100.973 249.337 96.761L248.784 94.839C234.226 99.0269 223.64 102.469 216.669 107.594L217.853 109.206ZM249.333 96.7623C269.108 91.1693 283.845 86.1277 293.62 78.618C298.534 74.8432 302.209 70.436 304.648 65.0199C307.083 59.6117 308.261 53.2512 308.261 45.6H306.261C306.261 53.0488 305.114 59.1133 302.824 64.1988C300.538 69.2765 297.088 73.4318 292.402 77.032C282.977 84.2723 268.614 89.2307 248.789 94.8377L249.333 96.7623ZM308.261 45.6C308.261 31.5263 303.142 19.9993 291.915 12.0344C280.746 4.11176 263.653 -0.200008 239.861 -0.200008V1.79999C263.468 1.79999 280.076 6.08823 290.757 13.6656C301.379 21.2007 306.261 32.0737 306.261 45.6H308.261ZM239.861 -0.200008C220.391 -0.200008 203.676 2.75495 191.797 9.86701C179.839 17.0266 172.861 28.3562 172.861 44.8H174.861C174.861 29.0438 181.483 18.3734 192.825 11.583C204.246 4.74503 220.53 1.79999 239.861 1.79999V-0.200008ZM172.861 44.8V52.4H174.861V44.8H172.861ZM173.861 53.4H211.061V51.4H173.861V53.4ZM212.061 52.4V48.8H210.061V52.4H212.061ZM212.061 48.8C212.061 44.8634 213.348 41.3146 217.359 38.6865C221.463 35.9977 228.524 34.2 240.261 34.2V32.2C228.398 32.2 220.859 34.0023 216.263 37.0135C211.574 40.0854 210.061 44.3366 210.061 48.8H212.061ZM240.261 34.2C248.422 34.2 255.141 35.1013 259.786 37.2803C262.094 38.3627 263.851 39.7423 265.033 41.4478C266.21 43.1456 266.861 45.2288 266.861 47.8H268.861C268.861 44.8712 268.112 42.3794 266.677 40.3084C265.246 38.2451 263.178 36.6623 260.636 35.4696C255.581 33.0986 248.5 32.2 240.261 32.2V34.2ZM266.861 47.8C266.861 50.5422 266.262 52.7424 265 54.6598C263.729 56.5934 261.733 58.3167 258.81 60.0097C252.923 63.419 243.596 66.5345 229.751 71.0493L230.371 72.9507C244.126 68.4655 253.699 65.281 259.812 61.7403C262.889 59.9583 265.168 58.0441 266.671 55.7589C268.185 53.4576 268.861 50.8577 268.861 47.8H266.861ZM229.758 71.047C205.856 78.6478 190.564 85.7616 181.291 96.1076C171.968 106.509 168.861 120.017 168.861 140H170.861C170.861 120.183 173.953 107.291 182.781 97.4424C191.658 87.5384 206.466 80.5522 230.364 72.953L229.758 71.047ZM169.861 141H309.261V139H169.861V141ZM310.261 140V108.4H308.261V140H310.261ZM309.261 107.4H217.261V109.4H309.261V107.4Z" fill="white"/>
</svg>
