<svg width="36" height="36" viewBox="0 0 36 36" fill="none" xmlns="http://www.w3.org/2000/svg">
<path d="M0 16.8607H4.25352H4.64724L1.87826 11.7503C1.93568 11.7368 1.99391 11.7276 2.05253 11.7228C2.72703 11.7228 3.40152 11.7228 4.07925 11.7228C4.14117 11.7216 4.20209 11.7395 4.25474 11.7742C4.30738 11.809 4.34953 11.8591 4.37615 11.9187C5.23675 13.4858 6.08875 15.0518 6.93214 16.6167C6.96594 16.6983 7.02328 16.7662 7.09582 16.8107C7.16836 16.8552 7.25233 16.8739 7.33554 16.8642C8.27145 16.8642 9.21058 16.8642 10.2143 16.8642L7.44204 11.685H13.2769C13.2253 11.5647 13.1995 11.4856 13.1607 11.4169C12.6734 10.513 12.1926 9.60916 11.6923 8.70186C11.6637 8.63737 11.6178 8.58336 11.5603 8.54666C11.5029 8.50996 11.4365 8.49221 11.3696 8.49566C9.67208 8.49566 7.97777 8.49566 6.28346 8.49566C6.19765 8.50997 6.1098 8.49342 6.03381 8.4486C5.95783 8.40379 5.89805 8.33327 5.86392 8.24821C5.58637 7.70177 5.28301 7.16907 4.98933 6.63294C4.93447 6.52983 4.88929 6.42673 4.82152 6.28926H10.3466C10.2788 6.14492 10.2368 6.04181 10.182 5.94558C9.50641 4.69461 8.82976 3.44363 8.15204 2.19265C8.09718 2.08955 8.03586 1.99675 8.1714 1.91427L9.85926 0.883246C10.6499 2.33356 11.4277 3.78043 12.2313 5.2548L12.738 4.33718L14.4258 1.2441C14.451 1.17618 14.4959 1.11857 14.5539 1.07964C14.612 1.04071 14.6801 1.02248 14.7485 1.02759C15.4359 1.03103 16.1104 1.03103 16.7817 1.03103C16.8337 1.03465 16.8854 1.04154 16.9366 1.05165C16.6881 1.51217 16.459 1.95895 16.2073 2.40573C15.3972 3.89728 14.5936 5.39914 13.761 6.87351C13.6293 7.04852 13.5575 7.26611 13.5575 7.49041C13.5575 7.7147 13.6293 7.93229 13.761 8.1073C14.2193 8.83933 14.6001 9.62978 15.0519 10.4512L18.0984 4.97986L21.003 10.2381C21.1159 10.0388 21.2095 9.87723 21.2966 9.7157C21.6807 9.02835 22.055 8.30663 22.4455 7.60554C22.4928 7.53543 22.5183 7.45128 22.5183 7.36496C22.5183 7.27865 22.4928 7.1945 22.4455 7.12439C21.6678 5.6569 20.8835 4.19628 20.0929 2.7494C19.8024 2.21671 19.7992 2.22358 20.0929 1.69776L20.8739 0.237136C20.9094 0.171838 20.9513 0.106539 21.0159 0C21.9453 1.71838 22.8586 3.39551 23.7881 5.11733L24.4658 3.88697C24.9822 2.93499 25.4953 1.98301 26.0117 1.03103C26.0891 0.879809 26.1537 0.866062 26.2892 0.948544C26.8217 1.29222 27.3639 1.6084 27.9286 1.95208C27.1412 3.40582 26.3602 4.84582 25.5534 6.34081H26.0407C27.3316 6.34081 28.63 6.34081 29.936 6.34081C30.0037 6.33518 30.0713 6.35241 30.1292 6.39005C30.1871 6.42768 30.2325 6.48381 30.2587 6.55045C30.6137 7.21718 30.9816 7.85642 31.3495 8.54721C31.2463 8.54721 31.172 8.56783 31.0978 8.56783C28.9452 8.56783 26.7927 8.56783 24.6433 8.56783C24.5527 8.5557 24.4608 8.57444 24.3808 8.62136C24.3008 8.66829 24.2368 8.74098 24.1979 8.82902C23.7268 9.73632 23.2298 10.6299 22.7489 11.5269C22.7295 11.5647 22.7134 11.6094 22.6811 11.685H28.7225C27.7544 13.4308 26.8346 15.1217 25.8858 16.8401C25.9891 16.8401 26.0472 16.8401 26.102 16.8401C26.9798 16.8401 27.8576 16.8401 28.7355 16.8401C28.794 16.8458 28.8529 16.8324 28.9042 16.8017C28.9554 16.7711 28.9968 16.7245 29.0227 16.6683C29.8833 15.0644 30.7589 13.4606 31.6497 11.8568C31.6722 11.8203 31.7016 11.7892 31.736 11.7655C31.7705 11.7418 31.8092 11.7261 31.8498 11.7193C32.5791 11.7193 33.3052 11.7193 34.0346 11.7193C34.0346 11.7193 34.0572 11.7193 34.1056 11.7674L31.356 16.8401H36V19.0568H31.2592C31.3947 19.3214 31.5077 19.5517 31.6271 19.7716C32.2402 20.9172 32.8513 22.0514 33.4602 23.174C33.4799 23.2094 33.4924 23.2488 33.4968 23.2897C33.5013 23.3305 33.4976 23.3719 33.486 23.4112C33.1245 24.0985 32.7534 24.7652 32.3855 25.4389C32.3855 25.4389 32.3597 25.4389 32.3209 25.4835C32.2209 25.3048 32.1144 25.1399 32.0176 24.9474C30.9913 23.0549 29.9672 21.1612 28.9452 19.2664C28.9184 19.2004 28.8729 19.145 28.815 19.1081C28.7571 19.0711 28.6898 19.0543 28.6225 19.0602C27.7899 19.0602 26.9572 19.0602 26.1246 19.0602H25.8438L28.7871 24.37H22.6101L23.1652 25.4011C23.5073 26.0265 23.8526 26.652 24.185 27.2844C24.2147 27.3453 24.2624 27.3941 24.3207 27.4233C24.3791 27.4525 24.4448 27.4604 24.5078 27.4459H31.285C31.2577 27.5222 31.2264 27.5967 31.1914 27.6693C30.8687 28.2639 30.5459 28.855 30.2232 29.453C30.1915 29.5233 30.1399 29.5813 30.0756 29.6189C30.0114 29.6565 29.9378 29.6718 29.865 29.6626L25.7244 29.6832C25.6696 29.6832 25.6115 29.6832 25.5179 29.7039C26.3118 31.1714 27.0896 32.6114 27.877 34.0617C27.2929 34.4053 26.741 34.749 26.1924 35.0927C26.031 35.1958 25.9923 35.0515 25.9407 34.9587C25.5598 34.2713 25.1887 33.5633 24.8111 32.8657C24.4991 32.286 24.184 31.7063 23.8655 31.1267C23.8333 31.0648 23.7945 31.0064 23.7332 30.9102L20.9739 36C20.9345 35.952 20.8978 35.9015 20.8642 35.8488C20.5156 35.2164 20.1671 34.5841 19.8282 33.9448C19.81 33.901 19.8006 33.8536 19.8006 33.8056C19.8006 33.7577 19.81 33.7103 19.8282 33.6664C20.6888 32.0626 21.5494 30.4657 22.41 28.8756C22.4508 28.8249 22.4757 28.7619 22.4815 28.6955C22.4873 28.629 22.4736 28.5623 22.4423 28.5044C21.984 27.6831 21.5387 26.8514 21.0901 26.0231C21.061 25.9715 21.0255 25.92 20.9675 25.8272C19.9993 27.6315 19.0311 29.4049 18.0371 31.216L15.0487 25.7172C14.9067 25.9647 14.7937 26.1674 14.684 26.3702C14.3193 27.0576 13.9611 27.7105 13.59 28.3773C13.5604 28.4304 13.547 28.4919 13.5517 28.5535C13.5563 28.615 13.5787 28.6735 13.6158 28.721C14.6313 30.5837 15.6457 32.4464 16.6591 34.3091C16.772 34.5153 16.8785 34.725 17.0044 34.9621C16.9435 34.9738 16.8821 34.9818 16.8204 34.9862C16.1524 34.9862 15.4844 34.9862 14.8163 34.9862C14.7541 34.9913 14.6919 34.976 14.6382 34.9422C14.5845 34.9083 14.5419 34.8577 14.5162 34.7971C13.8299 33.5278 13.1381 32.2608 12.4411 30.9961C12.4056 30.9274 12.3668 30.8655 12.3055 30.7589C11.5019 32.2333 10.7242 33.6699 9.93348 35.1271L8.23272 34.096C8.11009 34.0204 8.16495 33.9311 8.23272 33.8348L10.2239 30.1403C10.2853 30.0304 10.3401 29.9169 10.4176 29.7657H4.87961C4.95383 29.6076 4.99901 29.4977 5.05388 29.3911C5.3766 28.8206 5.67351 28.2432 5.99623 27.6727C6.0298 27.6308 6.0713 27.5969 6.11801 27.5732C6.16472 27.5495 6.2156 27.5366 6.26732 27.5353C7.58727 27.5353 8.90722 27.5353 10.2272 27.5353C10.6403 27.5353 11.0533 27.5353 11.4632 27.5147C11.5119 27.512 11.5595 27.4983 11.6029 27.4746C11.6463 27.4509 11.6845 27.4177 11.7149 27.3772C12.2442 26.4218 12.7606 25.4595 13.2801 24.5006C13.2909 24.4704 13.2995 24.4394 13.306 24.4078H7.49691C8.46508 22.6173 9.3784 20.8748 10.324 19.098C10.2304 19.098 10.1691 19.098 10.1045 19.098C9.19767 19.098 8.29081 19.098 7.38395 19.098C7.3174 19.0916 7.25061 19.1073 7.1928 19.143C7.13499 19.1787 7.08902 19.2327 7.06123 19.2974C5.98548 21.3113 4.89682 23.3218 3.79525 25.3289C3.75975 25.3942 3.71457 25.4526 3.65325 25.5454C3.50802 25.2773 3.37571 25.0436 3.24662 24.8065C3.01103 24.37 2.77866 23.9336 2.53662 23.504C2.50318 23.4527 2.48692 23.3909 2.49043 23.3286C2.49394 23.2662 2.51703 23.207 2.55598 23.1603C3.25307 21.8784 3.9437 20.5896 4.63433 19.3042C4.66338 19.2493 4.6892 19.1908 4.73761 19.0809H0V16.8607ZM18.1049 9.48888C18.0662 9.52668 18.0532 9.53356 18.0468 9.5473C17.4788 10.5577 16.9108 11.5681 16.3557 12.5888C16.338 12.6365 16.3306 12.6878 16.334 12.7389C16.3373 12.7901 16.3514 12.8398 16.3751 12.8844C16.6268 13.3758 16.8914 13.8536 17.1561 14.3381L17.9597 15.8091C17.9913 15.7761 18.0204 15.7404 18.0468 15.7025C18.6051 14.6715 19.1602 13.6645 19.7088 12.6369C19.7217 12.5934 19.7264 12.5476 19.7225 12.5022C19.7186 12.4568 19.7063 12.4126 19.6862 12.3723C19.441 11.9049 19.1828 11.4478 18.9278 10.9976C18.6729 10.5474 18.3953 9.99752 18.1049 9.48888ZM18.0307 26.6726L18.0726 26.5661C18.5954 25.6107 19.1182 24.6518 19.6314 23.6895C19.6529 23.6394 19.664 23.5849 19.664 23.5297C19.664 23.4746 19.6529 23.4201 19.6314 23.3699C19.2377 22.6173 18.8342 21.8715 18.4276 21.1292C18.2856 20.8611 18.1372 20.5965 17.979 20.3112C17.9532 20.3525 17.9371 20.3696 17.9274 20.3903C17.4013 21.356 16.8753 22.3217 16.3589 23.2943C16.3406 23.346 16.3329 23.4012 16.3362 23.4564C16.3396 23.5115 16.3539 23.5652 16.3783 23.6139C16.701 24.2188 17.0238 24.8168 17.3465 25.4148C17.5724 25.8203 17.7951 26.2224 18.0307 26.6555V26.6726ZM19.7443 19.0877C19.796 19.2011 19.8282 19.2733 19.8637 19.3386C20.322 20.1875 20.79 21.0329 21.2385 21.8853C21.272 21.9605 21.3276 22.0221 21.3969 22.0606C21.4663 22.0991 21.5455 22.1123 21.6226 22.0983C22.6618 22.0983 23.7042 22.0983 24.7466 22.0983C24.824 22.0983 24.9015 22.0983 25.0015 22.0811C24.9757 22.0158 24.966 21.978 24.9499 21.9471C24.4432 21.0364 23.9365 20.1222 23.4234 19.2183C23.3968 19.18 23.3629 19.1479 23.324 19.1243C23.2851 19.1006 23.242 19.0858 23.1975 19.0809C22.8296 19.0809 22.4617 19.0809 22.097 19.0809L19.7443 19.0877ZM11.1953 22.0743C11.2448 22.0771 11.2943 22.0771 11.3438 22.0743C12.3701 22.0743 13.3963 22.0743 14.4226 22.0743C14.4818 22.0762 14.5401 22.0583 14.5892 22.0232C14.6384 21.988 14.6761 21.9374 14.6969 21.8784C15.0196 21.3044 15.3198 20.7339 15.6296 20.16L16.2073 19.0774C16.1778 19.0668 16.1476 19.0587 16.1169 19.0534C15.0519 19.0534 13.9869 19.0534 12.9251 19.0534C12.884 19.0607 12.8447 19.077 12.8097 19.1012C12.7747 19.1255 12.7448 19.1572 12.7218 19.1943C12.5766 19.4383 12.4507 19.6892 12.3152 19.94C11.9408 20.6549 11.5826 21.3457 11.1953 22.0743ZM24.9693 13.9842H21.5161C21.4812 13.9888 21.4476 14.0014 21.4175 14.0209C21.3875 14.0405 21.3617 14.0666 21.3418 14.0976C20.8674 14.9568 20.4027 15.8159 19.9347 16.6854C19.9147 16.7387 19.8996 16.794 19.8896 16.8504C21.0385 16.8504 22.1648 16.8504 23.2879 16.8504C23.3524 16.8504 23.4395 16.761 23.4783 16.6923C23.7558 16.2077 24.0204 15.7197 24.2915 15.2317L24.9693 13.9842ZM16.0749 16.8401C16.0647 16.7882 16.0496 16.7375 16.0298 16.6889C15.5586 15.8194 15.0906 14.9499 14.6065 14.0873C14.5737 14.0439 14.5325 14.0086 14.4857 13.9837C14.439 13.9588 14.3877 13.9449 14.3355 13.9429C13.3286 13.9429 12.3249 13.9429 11.3212 13.9429C11.2714 13.9466 11.2218 13.9535 11.1727 13.9635C11.1744 13.9939 11.1798 14.024 11.1889 14.0529C11.6633 14.9396 12.1377 15.8263 12.6218 16.7061C12.6518 16.7466 12.6901 16.7793 12.7337 16.8019C12.7772 16.8246 12.825 16.8364 12.8735 16.8367C13.4157 16.8367 13.9546 16.8367 14.4871 16.8367L16.0749 16.8401Z" fill="url(#paint0_linear_30_2044)"/>
<defs>
<linearGradient id="paint0_linear_30_2044" x1="13.9701" y1="17.7143" x2="-5.88012" y2="9.1804" gradientUnits="userSpaceOnUse">
<stop stop-color="white"/>
<stop offset="1" stop-color="#05EBFF"/>
</linearGradient>
</defs>
</svg>
