<svg width="168" height="168" viewBox="0 0 168 168" fill="none" xmlns="http://www.w3.org/2000/svg">
<path d="M0 78.6833H19.8498H21.6871L8.76522 54.8346C9.03317 54.7717 9.30492 54.7288 9.57849 54.7063C12.7261 54.7063 15.8738 54.7063 19.0365 54.7063C19.3255 54.701 19.6098 54.7844 19.8554 54.9465C20.1011 55.1086 20.2978 55.3425 20.4221 55.6204C24.4382 62.9338 28.4142 70.2419 32.35 77.5446C32.5077 77.9252 32.7753 78.2424 33.1138 78.4501C33.4524 78.6577 33.8442 78.745 34.2325 78.6994C38.6001 78.6994 42.9827 78.6994 47.6665 78.6994L34.7295 54.5298H61.9589C61.718 53.9685 61.5975 53.5996 61.4168 53.2789C59.1426 49.0608 56.8986 44.8428 54.5642 40.6087C54.4306 40.3077 54.2163 40.0557 53.9482 39.8844C53.6801 39.7131 53.3704 39.6303 53.0582 39.6464C45.1364 39.6464 37.2296 39.6464 29.3228 39.6464C28.9224 39.7132 28.5124 39.636 28.1578 39.4268C27.8032 39.2177 27.5242 38.8886 27.365 38.4916C26.0697 35.9416 24.6541 33.4557 23.2836 30.9537C23.0275 30.4726 22.8167 29.9914 22.5004 29.3499H48.284C47.9677 28.6763 47.7719 28.1951 47.5159 27.7461C44.3632 21.9082 41.2056 16.0703 38.0429 10.2324C37.7868 9.75122 37.5007 9.31819 38.1332 8.93327L46.0099 4.12181C49.6997 10.8899 53.3293 17.642 57.0793 24.5224L59.4438 20.2402L67.3205 5.80582C67.4381 5.48884 67.6475 5.22001 67.9183 5.03833C68.1891 4.85664 68.5073 4.77156 68.8265 4.79542C72.0344 4.81146 75.1821 4.81146 78.3147 4.81146C78.5572 4.82839 78.7986 4.86052 79.0376 4.90769C77.8779 7.0568 76.8086 9.14177 75.6339 11.2267C71.8537 18.1873 68.1036 25.196 64.218 32.0764C63.6033 32.8931 63.2683 33.9085 63.2683 34.9552C63.2683 36.0019 63.6033 37.0174 64.218 37.8341C66.3566 41.2502 68.1338 44.939 70.2422 48.7721L84.4594 23.2393L98.0138 47.7778C98.5409 46.8475 98.9777 46.0938 99.3843 45.34C101.177 42.1323 102.924 38.7643 104.746 35.4925C104.967 35.1653 105.085 34.7727 105.085 34.3698C105.085 33.967 104.967 33.5743 104.746 33.2472C101.116 26.3989 97.4566 19.5826 93.7667 12.8306C92.4113 10.3446 92.3962 10.3767 93.7667 7.92286L97.4114 1.10663C97.5771 0.801909 97.7729 0.497184 98.0741 0C102.411 8.01909 106.674 15.8457 111.011 23.8809L114.174 18.1392C116.583 13.6966 118.978 9.25403 121.388 4.81146C121.749 4.10578 122.05 4.04162 122.683 4.42654C125.168 6.03036 127.698 7.50587 130.334 9.10969C126.659 15.8938 123.014 22.6138 119.249 29.5905H121.523C127.547 29.5905 133.607 29.5905 139.701 29.5905C140.017 29.5642 140.333 29.6446 140.603 29.8202C140.873 29.9959 141.085 30.2578 141.207 30.5688C142.864 33.6802 144.581 36.6633 146.298 39.887C145.816 39.887 145.469 39.9832 145.123 39.9832C135.078 39.9832 125.032 39.9832 115.002 39.9832C114.579 39.9266 114.15 40.0141 113.777 40.233C113.404 40.452 113.105 40.7912 112.924 41.2021C110.725 45.4362 108.406 49.6061 106.162 53.7921C106.071 53.9685 105.996 54.177 105.845 54.5298H134.039C129.52 62.6772 125.228 70.568 120.8 78.5871C121.282 78.5871 121.553 78.5871 121.809 78.5871C125.906 78.5871 130.002 78.5871 134.099 78.5871C134.372 78.6137 134.647 78.5513 134.886 78.4081C135.125 78.2649 135.318 78.0477 135.439 77.7852C139.455 70.3007 143.542 62.8162 147.698 55.3317C147.803 55.1613 147.941 55.0162 148.102 54.9057C148.262 54.7952 148.443 54.7218 148.632 54.6902C152.036 54.6902 155.424 54.6902 158.828 54.6902C158.828 54.6902 158.934 54.6902 159.159 54.9148L146.328 78.5871H168V88.9318H145.876C146.509 90.1667 147.036 91.2412 147.593 92.2677C150.455 97.6138 153.306 102.906 156.147 108.146C156.24 108.311 156.298 108.494 156.319 108.685C156.339 108.876 156.322 109.069 156.268 109.252C154.581 112.46 152.849 115.571 151.132 118.715C151.132 118.715 151.012 118.715 150.831 118.923C150.364 118.089 149.867 117.319 149.415 116.421C144.626 107.59 139.847 98.7525 135.078 89.9101C134.953 89.6021 134.74 89.3436 134.47 89.1709C134.2 88.9983 133.886 88.9203 133.572 88.9478C129.686 88.9478 125.8 88.9478 121.915 88.9478H120.605L134.34 113.727H105.514L108.104 118.538C109.701 121.457 111.312 124.376 112.863 127.327C113.002 127.611 113.225 127.839 113.497 127.975C113.769 128.112 114.076 128.149 114.37 128.081H145.997C145.869 128.437 145.723 128.785 145.56 129.123C144.054 131.898 142.548 134.657 141.042 137.447C140.893 137.775 140.653 138.046 140.353 138.222C140.053 138.397 139.71 138.468 139.37 138.426L120.047 138.522C119.791 138.522 119.52 138.522 119.083 138.618C122.788 145.466 126.418 152.186 130.093 158.954C127.367 160.558 124.791 162.162 122.231 163.766C121.478 164.247 121.297 163.573 121.056 163.14C119.279 159.933 117.547 156.629 115.785 153.373C114.329 150.668 112.858 147.963 111.372 145.258C111.222 144.969 111.041 144.697 110.755 144.247L97.8783 168C97.6941 167.776 97.5231 167.541 97.3662 167.294C95.7397 164.343 94.1131 161.392 92.5318 158.409C92.4467 158.205 92.4027 157.983 92.4027 157.76C92.4027 157.536 92.4467 157.315 92.5318 157.11C96.5479 149.626 100.564 142.173 104.58 134.753C104.77 134.516 104.887 134.222 104.914 133.912C104.941 133.602 104.877 133.291 104.731 133.021C102.592 129.188 100.514 125.306 98.4204 121.441C98.2849 121.201 98.1192 120.96 97.8481 120.527C93.33 128.947 88.8118 137.223 84.1732 145.675L70.2272 120.014C69.5645 121.169 69.0374 122.115 68.5253 123.061C66.8235 126.269 65.1518 129.316 63.4198 132.427C63.282 132.675 63.2196 132.962 63.2411 133.25C63.2627 133.537 63.3672 133.81 63.5403 134.031C68.2793 142.724 73.0134 151.417 77.7424 160.109C78.2695 161.072 78.7665 162.05 79.3538 163.156C79.0699 163.211 78.7833 163.248 78.4954 163.269C75.3779 163.269 72.2603 163.269 69.1428 163.269C68.8525 163.293 68.5622 163.221 68.3116 163.063C68.0609 162.906 67.8621 162.669 67.7422 162.387C64.5393 156.463 61.3113 150.55 58.0583 144.648C57.8926 144.328 57.7119 144.039 57.4257 143.542C53.6757 150.422 50.0461 157.126 46.3563 163.926L38.4194 159.115C37.8471 158.762 38.1031 158.345 38.4194 157.896L47.7117 140.655C47.9979 140.142 48.2539 139.612 48.6153 138.907H22.7715C23.1179 138.169 23.3287 137.656 23.5848 137.159C25.0908 134.496 26.4764 131.802 27.9824 129.139C28.1391 128.944 28.3327 128.786 28.5507 128.675C28.7687 128.564 29.0061 128.504 29.2475 128.498C35.4073 128.498 41.567 128.498 47.7268 128.498C49.6545 128.498 51.5823 128.498 53.4949 128.402C53.7222 128.389 53.9443 128.326 54.1468 128.215C54.3493 128.104 54.5275 127.949 54.6697 127.76C57.1396 123.302 59.5493 118.811 61.974 114.336C62.0241 114.195 62.0643 114.05 62.0945 113.903H34.9856C39.5037 105.547 43.7658 97.416 48.1786 89.1242C47.7418 89.1242 47.4557 89.1242 47.1545 89.1242C42.9225 89.1242 38.6905 89.1242 34.4585 89.1242C34.1479 89.0941 33.8362 89.1675 33.5664 89.3341C33.2966 89.5007 33.0821 89.7524 32.9524 90.0544C27.9322 99.4528 22.8518 108.835 17.7112 118.201C17.5455 118.506 17.3346 118.779 17.0485 119.212C16.3708 117.961 15.7533 116.87 15.1509 115.764C14.0515 113.727 12.9671 111.69 11.8376 109.685C11.6815 109.446 11.6056 109.157 11.622 108.867C11.6384 108.576 11.7461 108.299 11.9279 108.081C15.181 102.099 18.4039 96.0848 21.6269 90.0865C21.7624 89.8299 21.8829 89.5572 22.1088 89.044H0V78.6833ZM84.4895 44.2814C84.3087 44.4579 84.2485 44.4899 84.2184 44.5541C81.5677 49.2693 78.9171 53.9845 76.3267 58.7479C76.2442 58.9704 76.2095 59.2098 76.2251 59.4484C76.2408 59.6871 76.3063 59.919 76.417 60.1272C77.5918 62.4206 78.8267 64.6499 80.0617 66.9113L83.8118 73.7757C83.9594 73.6216 84.0953 73.4553 84.2184 73.2785C86.8238 68.467 89.4143 63.7678 91.9745 58.9724C92.0348 58.7694 92.0565 58.5557 92.0384 58.3437C92.0203 58.1316 91.9628 57.9256 91.8691 57.7375C90.7245 55.5563 89.5197 53.4232 88.3299 51.3222C87.1401 49.2212 85.8449 46.6551 84.4895 44.2814ZM84.1431 124.472L84.3389 123.975C86.7787 119.517 89.2185 115.042 91.6131 110.551C91.7134 110.317 91.7653 110.063 91.7653 109.805C91.7653 109.548 91.7134 109.294 91.6131 109.06C89.7757 105.547 87.8931 102.067 85.9955 98.6028C85.3329 97.3518 84.6401 96.1169 83.9021 94.7857C83.7816 94.9781 83.7063 95.0583 83.6611 95.1546C81.2063 99.6613 78.7514 104.168 76.3417 108.707C76.2563 108.948 76.2202 109.206 76.2358 109.463C76.2514 109.72 76.3183 109.971 76.4321 110.198C77.9381 113.021 79.4442 115.812 80.9502 118.602C82.0045 120.495 83.0437 122.371 84.1431 124.392V124.472ZM92.1402 89.0761C92.3812 89.6054 92.5318 89.9422 92.6974 90.2469C94.836 94.2083 97.0198 98.1537 99.1132 102.131C99.2691 102.482 99.5287 102.77 99.8523 102.949C100.176 103.129 100.546 103.191 100.905 103.126C105.755 103.126 110.619 103.126 115.484 103.126C115.845 103.126 116.207 103.126 116.674 103.045C116.553 102.741 116.508 102.564 116.433 102.42C114.068 98.1697 111.704 93.9036 109.309 89.6855C109.185 89.5066 109.027 89.3571 108.845 89.2466C108.664 89.1362 108.463 89.0672 108.255 89.044C106.538 89.044 104.821 89.044 103.119 89.044L92.1402 89.0761ZM52.2449 103.013C52.4757 103.026 52.7069 103.026 52.9377 103.013C57.7269 103.013 62.5162 103.013 67.3054 103.013C67.5817 103.022 67.8536 102.939 68.0831 102.775C68.3127 102.611 68.4883 102.375 68.5856 102.099C70.0916 99.4207 71.4922 96.7584 72.9381 94.08L75.6339 89.028C75.4965 88.9783 75.3554 88.9408 75.2122 88.9157C70.2422 88.9157 65.2723 88.9157 60.3173 88.9157C60.1252 88.9499 59.9418 89.026 59.7785 89.1391C59.6153 89.2523 59.4757 89.4001 59.3685 89.5733C58.6908 90.712 58.1035 91.8828 57.4709 93.0536C55.7239 96.3895 54.0522 99.6132 52.2449 103.013ZM116.523 65.2594H100.408C100.245 65.2812 100.089 65.3397 99.9484 65.4309C99.8082 65.5222 99.6878 65.6441 99.5952 65.7887C97.3813 69.7982 95.2126 73.8077 93.0288 77.8654C92.9353 78.1141 92.8646 78.372 92.8179 78.6352C98.1795 78.6352 103.436 78.6352 108.677 78.6352C108.978 78.6352 109.384 78.2182 109.565 77.8975C110.86 75.6361 112.095 73.3587 113.36 71.0812L116.523 65.2594ZM75.0164 78.5871C74.9687 78.3449 74.8981 78.1085 74.8056 77.8814C72.6067 73.8238 70.423 69.7661 68.1639 65.7405C68.0107 65.5382 67.8184 65.3734 67.6002 65.2571C67.3819 65.1409 67.1427 65.076 66.8988 65.0669C62.1999 65.0669 57.5161 65.0669 52.8323 65.0669C52.5998 65.0842 52.3684 65.1164 52.1395 65.1632C52.1471 65.3051 52.1724 65.4453 52.2148 65.5801C54.4287 69.718 56.6426 73.8559 58.9017 77.9616C59.0419 78.1507 59.2204 78.3036 59.4237 78.4091C59.6271 78.5146 59.8502 78.57 60.0764 78.5711C62.6065 78.5711 65.1217 78.5711 67.6066 78.5711L75.0164 78.5871Z" fill="url(#paint0_linear_250_293)"/>
<defs>
<linearGradient id="paint0_linear_250_293" x1="65.194" y1="82.6667" x2="-27.4406" y2="42.8419" gradientUnits="userSpaceOnUse">
<stop stop-color="white"/>
<stop offset="1" stop-color="#05EBFF"/>
</linearGradient>
</defs>
</svg>
