<svg width="24" height="24" viewBox="0 0 24 24" fill="none" xmlns="http://www.w3.org/2000/svg">
<path d="M0 11.2405H2.83568H3.09816L1.25217 7.83351C1.29045 7.82452 1.32927 7.8184 1.36835 7.81518C1.81802 7.81518 2.26768 7.81518 2.7195 7.81518C2.76078 7.81443 2.80139 7.82634 2.83649 7.8495C2.87159 7.87265 2.89969 7.90608 2.91744 7.94578C3.49117 8.99055 4.05917 10.0346 4.62143 11.0778C4.64396 11.1322 4.68218 11.1775 4.73055 11.2071C4.77891 11.2368 4.83489 11.2493 4.89036 11.2428C5.5143 11.2428 6.14039 11.2428 6.8095 11.2428L4.96136 7.78998H8.85128C8.81685 7.70979 8.79964 7.65709 8.77382 7.61127C8.44895 7.00869 8.12837 6.40611 7.79489 5.80124C7.7758 5.75825 7.74518 5.72224 7.70688 5.69777C7.66859 5.67331 7.62435 5.66147 7.57974 5.66377C6.44805 5.66377 5.31851 5.66377 4.18897 5.66377C4.13176 5.67332 4.0732 5.66228 4.02254 5.6324C3.97189 5.60252 3.93203 5.55551 3.90928 5.49881C3.72425 5.13451 3.52201 4.77938 3.32622 4.42196C3.28965 4.35322 3.25952 4.28449 3.21434 4.19284H6.89771C6.85253 4.09661 6.82456 4.02788 6.78799 3.96372C6.33761 3.12974 5.88651 2.29575 5.43469 1.46177C5.39812 1.39303 5.35724 1.33117 5.4476 1.27618L6.57284 0.588831C7.09995 1.5557 7.61847 2.52029 8.15419 3.5032L8.49198 2.89146L9.61721 0.829403C9.63402 0.78412 9.66393 0.745715 9.70262 0.719761C9.74131 0.693806 9.78675 0.681651 9.83236 0.68506C10.2906 0.687351 10.7403 0.687351 11.1878 0.687351C11.2225 0.68977 11.2569 0.69436 11.2911 0.701098C11.1254 1.00811 10.9727 1.30597 10.8048 1.60382C10.2648 2.59819 9.72909 3.59943 9.174 4.58234C9.08618 4.69901 9.03833 4.84408 9.03833 4.9936C9.03833 5.14313 9.08618 5.2882 9.174 5.40487C9.47952 5.89289 9.73339 6.41986 10.0346 6.96745L12.0656 3.3199L14.002 6.82539C14.0773 6.69251 14.1397 6.58482 14.1978 6.47714C14.4538 6.0189 14.7034 5.53776 14.9637 5.07036C14.9952 5.02362 15.0122 4.96752 15.0122 4.90998C15.0122 4.85243 14.9952 4.79633 14.9637 4.74959C14.4452 3.77126 13.9224 2.79752 13.3952 1.83294C13.2016 1.4778 13.1995 1.48239 13.3952 1.13184L13.9159 0.158091C13.9396 0.114558 13.9675 0.0710263 14.0106 0C14.6302 1.14558 15.2391 2.26368 15.8587 3.41155L16.3105 2.59131C16.6548 1.95666 16.9969 1.322 17.3411 0.687351C17.3927 0.586539 17.4358 0.577375 17.5261 0.632363C17.8811 0.86148 18.2426 1.07227 18.6191 1.30138C18.0941 2.27055 17.5735 3.23055 17.0356 4.22721H17.3605C18.2211 4.22721 19.0867 4.22721 19.9573 4.22721C20.0024 4.22345 20.0475 4.23494 20.0861 4.26003C20.1248 4.28512 20.155 4.32254 20.1725 4.36697C20.4091 4.81146 20.6544 5.23761 20.8997 5.69814C20.8308 5.69814 20.7814 5.71189 20.7319 5.71189C19.2968 5.71189 17.8618 5.71189 16.4289 5.71189C16.3685 5.7038 16.3072 5.7163 16.2538 5.74758C16.2005 5.77886 16.1578 5.82732 16.132 5.88601C15.8178 6.49088 15.4865 7.08659 15.1659 7.68458C15.153 7.70979 15.1423 7.73957 15.1208 7.78998H19.1484C18.5029 8.95389 17.8897 10.0811 17.2572 11.2267C17.326 11.2267 17.3648 11.2267 17.4013 11.2267C17.9866 11.2267 18.5718 11.2267 19.157 11.2267C19.196 11.2305 19.2352 11.2216 19.2694 11.2012C19.3036 11.1807 19.3312 11.1497 19.3485 11.1122C19.9222 10.043 20.506 8.97375 21.0998 7.90453C21.1148 7.88019 21.1344 7.85945 21.1574 7.84367C21.1803 7.82788 21.2062 7.8174 21.2332 7.81289C21.7194 7.81289 22.2035 7.81289 22.6897 7.81289C22.6897 7.81289 22.7048 7.81289 22.7371 7.84496L20.904 11.2267H24V12.7045H20.8394C20.9298 12.881 21.0051 13.0345 21.0847 13.1811C21.4935 13.9448 21.9009 14.7009 22.3068 15.4494C22.3199 15.4729 22.3283 15.4992 22.3312 15.5264C22.3342 15.5537 22.3317 15.5813 22.324 15.6074C22.083 16.0657 21.8356 16.5102 21.5903 16.9592C21.5903 16.9592 21.5731 16.9592 21.5473 16.989C21.4806 16.8699 21.4096 16.7599 21.345 16.6316C20.6609 15.3699 19.9781 14.1075 19.2968 12.8443C19.279 12.8003 19.2486 12.7634 19.21 12.7387C19.1714 12.714 19.1265 12.7029 19.0817 12.7068C18.5266 12.7068 17.9715 12.7068 17.4164 12.7068H17.2292L19.1914 16.2467H15.0734L15.4435 16.934C15.6715 17.351 15.9017 17.768 16.1234 18.1896C16.1432 18.2302 16.1749 18.2627 16.2138 18.2822C16.2527 18.3017 16.2965 18.307 16.3385 18.2973H20.8567C20.8384 18.3481 20.8176 18.3978 20.7943 18.4462C20.5791 18.8426 20.364 19.2367 20.1488 19.6353C20.1276 19.6822 20.0932 19.7209 20.0504 19.7459C20.0076 19.771 19.9585 19.7812 19.91 19.7751L17.1496 19.7888C17.113 19.7888 17.0743 19.7888 17.0119 19.8026C17.5412 20.7809 18.0597 21.7409 18.5847 22.7078C18.1952 22.9369 17.8273 23.166 17.4616 23.3951C17.354 23.4639 17.3282 23.3676 17.2938 23.3058C17.0399 22.8475 16.7925 22.3756 16.5407 21.9105C16.3328 21.524 16.1226 21.1376 15.9104 20.7511C15.8888 20.7099 15.863 20.6709 15.8221 20.6068L13.9826 24C13.9563 23.968 13.9319 23.9344 13.9095 23.8992C13.6771 23.4776 13.4447 23.056 13.2188 22.6299C13.2067 22.6007 13.2004 22.569 13.2004 22.5371C13.2004 22.5051 13.2067 22.4735 13.2188 22.4443C13.7926 21.3751 14.3663 20.3105 14.94 19.2504C14.9672 19.2166 14.9838 19.1746 14.9877 19.1303C14.9915 19.086 14.9824 19.0415 14.9615 19.003C14.656 18.4554 14.3591 17.9009 14.0601 17.3487C14.0407 17.3144 14.017 17.28 13.9783 17.2181C13.3329 18.421 12.6874 19.6032 12.0247 20.8107L10.0325 17.1448C9.93779 17.3098 9.86248 17.445 9.78933 17.5801C9.54621 18.0384 9.3074 18.4737 9.05997 18.9182C9.04028 18.9536 9.03136 18.9946 9.03445 19.0357C9.03753 19.0767 9.05246 19.1157 9.07718 19.1473C9.75419 20.3891 10.4305 21.6309 11.1061 22.8727C11.1814 23.0102 11.2524 23.15 11.3363 23.3081C11.2957 23.3158 11.2548 23.3212 11.2136 23.3241C10.7683 23.3241 10.3229 23.3241 9.87754 23.3241C9.83607 23.3276 9.7946 23.3173 9.7588 23.2948C9.72299 23.2722 9.69459 23.2385 9.67745 23.1981C9.2199 22.3519 8.75876 21.5072 8.29404 20.6641C8.27037 20.6182 8.24455 20.577 8.20368 20.506C7.66795 21.4889 7.14944 22.4466 6.62232 23.418L5.48848 22.7307C5.40672 22.6803 5.4433 22.6207 5.48848 22.5566L6.81596 20.0936C6.85684 20.0202 6.89341 19.9446 6.94505 19.8438H3.25307C3.30255 19.7384 3.33268 19.6651 3.36925 19.5941C3.5844 19.2137 3.78234 18.8288 3.99749 18.4485C4.01987 18.4205 4.04753 18.3979 4.07867 18.3821C4.10982 18.3664 4.14373 18.3577 4.17822 18.3568C5.05818 18.3568 5.93814 18.3568 6.81811 18.3568C7.0935 18.3568 7.36889 18.3568 7.64213 18.3431C7.6746 18.3413 7.70633 18.3322 7.73526 18.3164C7.76418 18.3006 7.78964 18.2785 7.80995 18.2515C8.1628 17.6145 8.50704 16.973 8.85343 16.3337C8.86058 16.3136 8.86633 16.2929 8.87064 16.2719H4.99794C5.64339 15.0782 6.25226 13.9166 6.88265 12.732C6.82026 12.732 6.77938 12.732 6.73635 12.732C6.13178 12.732 5.52721 12.732 4.92264 12.732C4.87827 12.7277 4.83374 12.7382 4.7952 12.762C4.75666 12.7858 4.72601 12.8218 4.70749 12.8649C3.99032 14.2075 3.26454 15.5479 2.53017 16.8859C2.5065 16.9295 2.47638 16.9684 2.4355 17.0303C2.33868 16.8516 2.25047 16.6958 2.16441 16.5377C2.00735 16.2467 1.85244 15.9557 1.69108 15.6693C1.66879 15.6351 1.65794 15.5939 1.66028 15.5524C1.66263 15.5108 1.67802 15.4713 1.70399 15.4402C2.16871 14.5856 2.62913 13.7264 3.08956 12.8695C3.10892 12.8328 3.12613 12.7939 3.1584 12.7206H0V11.2405ZM12.0699 6.32592C12.0441 6.35112 12.0355 6.3557 12.0312 6.36487C11.6525 7.03847 11.2739 7.71208 10.9038 8.39255C10.892 8.42434 10.8871 8.45854 10.8893 8.49263C10.8915 8.52673 10.9009 8.55986 10.9167 8.58959C11.0845 8.91723 11.261 9.2357 11.4374 9.55876L11.9731 10.5394C11.9942 10.5174 12.0136 10.4936 12.0312 10.4684C12.4034 9.781 12.7735 9.10969 13.1392 8.42463C13.1478 8.39563 13.1509 8.3651 13.1483 8.33481C13.1458 8.30452 13.1375 8.27508 13.1242 8.24821C12.9606 7.93661 12.7885 7.63189 12.6186 7.33174C12.4486 7.0316 12.2636 6.66501 12.0699 6.32592ZM12.0204 17.7818L12.0484 17.7107C12.397 17.0738 12.7455 16.4346 13.0876 15.793C13.1019 15.7596 13.1093 15.7233 13.1093 15.6865C13.1093 15.6497 13.1019 15.6134 13.0876 15.58C12.8251 15.0782 12.5562 14.581 12.2851 14.0861C12.1904 13.9074 12.0914 13.731 11.986 13.5408C11.9688 13.5683 11.958 13.5798 11.9516 13.5935C11.6009 14.2373 11.2502 14.8811 10.906 15.5295C10.8938 15.564 10.8886 15.6008 10.8908 15.6376C10.8931 15.6743 10.9026 15.7101 10.9189 15.7426C11.134 16.1459 11.3492 16.5445 11.5643 16.9432C11.7149 17.2136 11.8634 17.4816 12.0204 17.7703V17.7818ZM13.1629 12.7252C13.1973 12.8008 13.2188 12.8489 13.2425 12.8924C13.548 13.4583 13.86 14.022 14.159 14.5902C14.1813 14.6404 14.2184 14.6814 14.2646 14.7071C14.3108 14.7327 14.3637 14.7415 14.4151 14.7322C15.1078 14.7322 15.8028 14.7322 16.4977 14.7322C16.5493 14.7322 16.601 14.7322 16.6677 14.7208C16.6505 14.6772 16.644 14.652 16.6333 14.6314C16.2955 14.0242 15.9577 13.4148 15.6156 12.8122C15.5978 12.7866 15.5753 12.7653 15.5494 12.7495C15.5234 12.7337 15.4947 12.7239 15.465 12.7206C15.2197 12.7206 14.9745 12.7206 14.7313 12.7206L13.1629 12.7252ZM7.46356 14.7162C7.49652 14.7181 7.52956 14.7181 7.56253 14.7162C8.24671 14.7162 8.93088 14.7162 9.61506 14.7162C9.65452 14.7174 9.69337 14.7055 9.72616 14.6821C9.75895 14.6587 9.78405 14.6249 9.79794 14.5856C10.0131 14.203 10.2132 13.8226 10.4197 13.44L10.8048 12.7183C10.7852 12.7112 10.7651 12.7058 10.7446 12.7022C10.0346 12.7022 9.32461 12.7022 8.61676 12.7022C8.58932 12.7071 8.56311 12.718 8.53979 12.7342C8.51647 12.7503 8.49653 12.7714 8.48122 12.7962C8.3844 12.9589 8.30049 13.1261 8.21013 13.2934C7.96056 13.7699 7.72174 14.2305 7.46356 14.7162ZM16.6462 9.32277H14.3441C14.3208 9.32589 14.2984 9.33424 14.2783 9.34727C14.2583 9.36031 14.2411 9.37773 14.2279 9.39838C13.9116 9.97117 13.6018 10.544 13.2898 11.1236C13.2765 11.1592 13.2664 11.196 13.2597 11.2336C14.0256 11.2336 14.7765 11.2336 15.5252 11.2336C15.5683 11.2336 15.6264 11.174 15.6522 11.1282C15.8372 10.8052 16.0136 10.4798 16.1944 10.1545L16.6462 9.32277ZM10.7166 11.2267C10.7098 11.1921 10.6997 11.1584 10.6865 11.1259C10.3724 10.5463 10.0604 9.96659 9.7377 9.3915C9.71581 9.3626 9.68835 9.33905 9.65716 9.32245C9.62598 9.30585 9.59181 9.29658 9.55697 9.29527C8.8857 9.29527 8.21658 9.29527 7.54747 9.29527C7.51425 9.29774 7.4812 9.30234 7.4485 9.30902C7.44959 9.3293 7.45321 9.34933 7.45926 9.36859C7.77553 9.95971 8.0918 10.5508 8.41452 11.1374C8.43456 11.1644 8.46005 11.1862 8.4891 11.2013C8.51816 11.2164 8.55002 11.2243 8.58234 11.2244C8.94379 11.2244 9.30309 11.2244 9.65809 11.2244L10.7166 11.2267Z" fill="url(#paint0_linear_41_3530)"/>
<defs>
<linearGradient id="paint0_linear_41_3530" x1="9.31343" y1="11.8095" x2="-3.92008" y2="6.12027" gradientUnits="userSpaceOnUse">
<stop stop-color="white"/>
<stop offset="1" stop-color="#05EBFF"/>
</linearGradient>
</defs>
</svg>
