<svg width="16" height="16" viewBox="0 0 16 16" fill="none" xmlns="http://www.w3.org/2000/svg">
<path d="M14.375 11.3125C14.7202 11.3125 15 11.0327 15 10.6875V8.375C15 6.9965 13.8785 5.875 12.5 5.875H11.7488V3.67081C11.7488 1.64672 10.0666 0 7.99884 0C5.93109 0 4.24884 1.64672 4.24884 3.67081V5.875H3.5C2.1215 5.875 1 6.9965 1 8.375V13.5C1 14.8785 2.1215 16 3.5 16H12.5C13.8785 16 15 14.8785 15 13.5C15 13.1548 14.7202 12.875 14.375 12.875C14.0298 12.875 13.75 13.1548 13.75 13.5C13.75 14.1892 13.1892 14.75 12.5 14.75H3.5C2.81075 14.75 2.25 14.1892 2.25 13.5V8.375C2.25 7.68575 2.81075 7.125 3.5 7.125H12.5C13.1892 7.125 13.75 7.68575 13.75 8.375V10.6875C13.75 11.0327 14.0298 11.3125 14.375 11.3125ZM10.4988 5.875H5.49884V3.67081C5.49884 2.33597 6.62034 1.25 7.99884 1.25C9.37734 1.25 10.4988 2.33597 10.4988 3.67081V5.875Z" fill="white"/>
<path d="M8 11.4688C8.34518 11.4688 8.625 11.1889 8.625 10.8438C8.625 10.4986 8.34518 10.2188 8 10.2188C7.65482 10.2188 7.375 10.4986 7.375 10.8438C7.375 11.1889 7.65482 11.4688 8 11.4688Z" fill="white"/>
</svg>
