<svg width="316" height="57" viewBox="0 0 316 57" fill="none" xmlns="http://www.w3.org/2000/svg">
<path d="M43.3042 25.112L43.3515 24.8863L43.3502 24.886L43.3042 25.112ZM24.0304 21.1945L23.9795 21.4194L23.9845 21.4204L24.0304 21.1945ZM43.7743 18.609H43.5438V18.8396H43.7743V18.609ZM58.1905 18.609V18.8396H58.4211V18.609H58.1905ZM18.2326 33.2603L18.2778 33.0342L18.2749 33.0336L18.2326 33.2603ZM37.8198 37.1777L37.7746 37.4038L37.7755 37.4039L37.8198 37.1777ZM15.6471 39.0581H15.8776V38.8275H15.6471V39.0581ZM0.447355 39.0581V38.8275H0.216807V39.0581H0.447355ZM31.0035 58.5625C39.8347 58.5625 47.1872 57.2095 52.3398 54.2919C57.5085 51.3653 60.4582 46.8653 60.4582 40.6251H59.9971C59.9971 46.6856 57.1489 51.039 52.1126 53.8907C47.0604 56.7514 39.8007 58.1014 31.0035 58.1014V58.5625ZM60.4582 40.6251C60.4582 34.8595 57.8662 31.2657 54.4215 28.9459C50.9919 26.6364 46.7208 25.5915 43.3515 24.8863L43.257 25.3376C46.6257 26.0427 50.8163 27.074 54.1639 29.3284C57.4963 31.5725 59.9971 35.03 59.9971 40.6251H60.4582ZM43.3502 24.886L24.0763 20.9686L23.9845 21.4204L43.2583 25.3379L43.3502 24.886ZM24.0813 20.9697C21.9995 20.4983 20.4069 20.0733 19.334 19.4751C18.8018 19.1784 18.4106 18.8459 18.1517 18.4558C17.8945 18.0683 17.758 17.6095 17.758 17.042H17.2969C17.2969 17.6889 17.4542 18.2389 17.7675 18.7108C18.079 19.1801 18.535 19.5576 19.1095 19.8779C20.2499 20.5137 21.9088 20.9505 23.9795 21.4194L24.0813 20.9697ZM17.758 17.042C17.758 16.362 17.9406 15.762 18.3463 15.2379C18.7547 14.7104 19.4016 14.2439 20.3562 13.8573C22.2717 13.0815 25.3682 12.65 30.0633 12.65V12.1889C25.3564 12.1889 22.185 12.6192 20.1831 13.4299C19.179 13.8366 18.4547 14.3446 17.9817 14.9556C17.506 15.5701 17.2969 16.2726 17.2969 17.042H17.758ZM30.0633 12.65C36.0518 12.65 39.4331 13.278 41.3114 14.2124C42.2442 14.6765 42.7959 15.211 43.1176 15.7732C43.44 16.3366 43.5438 16.9491 43.5438 17.5905H44.0049C44.0049 16.8999 43.8932 16.2001 43.5178 15.5442C43.1417 14.887 42.5133 14.2953 41.5168 13.7996C39.5364 12.8144 36.0622 12.1889 30.0633 12.1889V12.65ZM43.5438 17.5905V18.609H44.0049V17.5905H43.5438ZM43.7743 18.8396H58.1905V18.3785H43.7743V18.8396ZM58.4211 18.609V17.5121H57.96V18.609H58.4211ZM58.4211 17.5121C58.4211 12.4565 56.1661 8.21197 51.5179 5.2423C46.8823 2.28067 39.8786 0.593242 30.3767 0.593242V1.05434C39.8352 1.05434 46.7384 2.73591 51.2696 5.63087C55.7883 8.51778 57.96 12.6174 57.96 17.5121H58.4211ZM30.3767 0.593242C21.9373 0.593242 14.8584 1.88746 9.88158 4.73704C4.88822 7.59606 2.01883 12.0182 2.01883 18.2173H2.47993C2.47993 12.1938 5.25167 7.91928 10.1107 5.13718C14.9862 2.34563 21.971 1.05434 30.3767 1.05434V0.593242ZM2.01883 18.2173C2.01883 23.7382 4.26915 27.235 7.4327 29.5104C10.581 31.7748 14.62 32.8199 18.1902 33.4869L18.2749 33.0336C14.7154 32.3687 10.7628 31.3375 7.70193 29.1361C4.65633 26.9455 2.47993 23.5868 2.47993 18.2173H2.01883ZM18.1874 33.4863L37.7746 37.4038L37.865 36.9516L18.2778 33.0342L18.1874 33.4863ZM37.7755 37.4039C39.7733 37.7957 41.504 38.241 42.7328 38.9173C43.9498 39.5871 44.6407 40.462 44.6407 41.722H45.1018C45.1018 40.2397 44.2648 39.2342 42.9551 38.5133C41.6571 37.7989 39.8622 37.3432 37.8642 36.9515L37.7755 37.4039ZM44.6407 41.722C44.6407 42.4426 44.4523 43.0878 44.0258 43.6561C43.5969 44.2275 42.9153 44.7373 41.9027 45.1624C39.8706 46.0155 36.5597 46.5057 31.4735 46.5057V46.9668C36.5728 46.9668 39.9607 46.4777 42.0811 45.5875C43.1447 45.141 43.9028 44.5882 44.3945 43.9329C44.8886 43.2746 45.1018 42.5291 45.1018 41.722H44.6407ZM31.4735 46.5057C24.5455 46.5057 20.6374 45.7406 18.4669 44.6027C17.3883 44.0373 16.7472 43.3841 16.3725 42.693C15.9966 42 15.8776 41.2486 15.8776 40.4684H15.4165C15.4165 41.2943 15.5423 42.1295 15.9671 42.9128C16.393 43.6982 17.1083 44.4111 18.2528 45.0111C20.5287 46.2042 24.5339 46.9668 31.4735 46.9668V46.5057ZM15.8776 40.4684V39.0581H15.4165V40.4684H15.8776ZM15.6471 38.8275H0.447355V39.2886H15.6471V38.8275ZM0.216807 39.0581V40.4684H0.677902V39.0581H0.216807ZM0.216807 40.4684C0.216807 45.8825 2.79066 50.4197 7.936 53.5922C13.0697 56.7575 20.7571 58.5625 31.0035 58.5625V58.1014C20.8007 58.1014 13.2101 56.3023 8.178 53.1997C3.15756 50.1042 0.677902 45.7097 0.677902 40.4684H0.216807ZM117.466 36.4726L117.294 36.6254L117.697 37.0805V36.4726H117.466ZM87.067 2.15572L87.2396 2.00284L87.1708 1.92517H87.067V2.15572ZM71.1622 2.15572V1.92517H70.9316V2.15572H71.1622ZM71.1622 57H70.9316V57.2305H71.1622V57ZM86.1268 57V57.2305H86.3574V57H86.1268ZM86.1268 23.4666L86.2977 23.3118L85.8963 22.8691V23.4666H86.1268ZM116.526 57L116.355 57.1548L116.424 57.2305H116.526V57ZM132.431 57V57.2305H132.662V57H132.431ZM132.431 2.15572H132.662V1.92517H132.431V2.15572ZM117.466 2.15572V1.92517H117.236V2.15572H117.466ZM117.639 36.3197L87.2396 2.00284L86.8945 2.30859L117.294 36.6254L117.639 36.3197ZM87.067 1.92517H71.1622V2.38627H87.067V1.92517ZM70.9316 2.15572V57H71.3927V2.15572H70.9316ZM71.1622 57.2305H86.1268V56.7695H71.1622V57.2305ZM86.3574 57V23.4666H85.8963V57H86.3574ZM85.956 23.6215L116.355 57.1548L116.697 56.8452L86.2977 23.3118L85.956 23.6215ZM116.526 57.2305H132.431V56.7695H116.526V57.2305ZM132.662 57V2.15572H132.201V57H132.662ZM132.431 1.92517H117.466V2.38627H132.431V1.92517ZM117.236 2.15572V36.4726H117.697V2.15572H117.236ZM214.514 0.823789L214.673 0.990627L215.09 0.593242H214.514V0.823789ZM204.25 0.823789V0.593242H204.159L204.092 0.656178L204.25 0.823789ZM200.019 4.81959L199.919 5.027L200.062 5.0965L200.178 4.9872L200.019 4.81959ZM151.913 50.4187L152.071 50.5863L152.25 50.4172L152.07 50.2497L151.913 50.4187ZM143.53 58.3319L143.371 58.1643L142.95 58.5625H143.53V58.3319ZM153.95 58.3319V58.5625H154.043L154.11 58.4981L153.95 58.3319ZM158.024 54.4145L158.126 54.2077L157.981 54.1362L157.864 54.2483L158.024 54.4145ZM206.052 8.89373L205.893 8.72689L205.713 8.89863L205.898 9.0651L206.052 8.89373ZM189.05 15.1616L189.209 15.3289L189.485 15.067L189.125 14.9436L189.05 15.1616ZM162.882 39.9983L162.705 40.1459L162.862 40.3348L163.041 40.1655L162.882 39.9983ZM168.993 44.0724L168.834 43.9054L168.551 44.1751L168.924 44.2924L168.993 44.0724ZM195.162 19.1574L195.341 19.0121L195.183 18.8185L195.003 18.9905L195.162 19.1574ZM214.514 0.593242H204.25V1.05434H214.514V0.593242ZM204.092 0.656178L199.861 4.65198L200.178 4.9872L204.408 0.9914L204.092 0.656178ZM200.12 4.61217C194.752 2.00698 187.82 0.593242 178.943 0.593242V1.05434C187.774 1.05434 194.631 2.46115 199.919 5.027L200.12 4.61217ZM178.943 0.593242C167.795 0.593242 159.018 2.73145 153.024 7.45914C147.019 12.1954 143.848 19.4988 143.848 29.7346H144.309C144.309 19.5996 147.444 12.4476 153.309 7.82116C159.186 3.18614 167.841 1.05434 178.943 1.05434V0.593242ZM143.848 29.7346C143.848 38.3967 146.29 45.5176 151.756 50.5877L152.07 50.2497C146.724 45.2911 144.309 38.3092 144.309 29.7346H143.848ZM151.755 50.251L143.371 58.1643L143.688 58.4996L152.071 50.5863L151.755 50.251ZM143.53 58.5625H153.95V58.1014H143.53V58.5625ZM154.11 58.4981L158.184 54.5807L157.864 54.2483L153.79 58.1657L154.11 58.4981ZM157.922 54.6213C163.214 57.2278 170.148 58.5625 178.943 58.5625V58.1014C170.189 58.1014 163.333 56.7722 158.126 54.2077L157.922 54.6213ZM178.943 58.5625C190.169 58.5625 198.986 56.4441 204.999 51.7562C211.024 47.0593 214.196 39.8143 214.196 29.6562H213.735C213.735 39.7122 210.6 46.805 204.716 51.3925C198.82 55.9889 190.125 58.1014 178.943 58.1014V58.5625ZM214.196 29.6562C214.196 20.9172 211.754 13.7154 206.206 8.72237L205.898 9.0651C211.319 13.944 213.735 21.0018 213.735 29.6562H214.196ZM206.211 9.06057L214.673 0.990627L214.355 0.656951L205.893 8.72689L206.211 9.06057ZM160.135 29.7346C160.135 24.7876 161.207 20.8884 164.058 18.2191C166.914 15.5456 171.602 14.0603 178.943 14.0603V13.5992C171.555 13.5992 166.724 15.0911 163.743 17.8825C160.757 20.678 159.674 24.7312 159.674 29.7346H160.135ZM178.943 14.0603C182.849 14.0603 186.268 14.4513 188.976 15.3797L189.125 14.9436C186.349 13.9917 182.873 13.5992 178.943 13.5992V14.0603ZM188.892 14.9944L162.723 39.8311L163.041 40.1655L189.209 15.3289L188.892 14.9944ZM163.059 39.8507C161.147 37.5559 160.135 34.247 160.135 29.7346H159.674C159.674 34.3106 160.7 37.7397 162.705 40.1459L163.059 39.8507ZM179.022 45.0955C175.118 45.0955 171.774 44.7048 169.062 43.8525L168.924 44.2924C171.697 45.1638 175.091 45.5565 179.022 45.5565V45.0955ZM169.152 44.2394L195.321 19.3244L195.003 18.9905L168.834 43.9054L169.152 44.2394ZM194.983 19.3028C196.976 21.756 197.987 25.0671 197.987 29.6562H198.448C198.448 25.0001 197.422 21.5733 195.341 19.0121L194.983 19.3028ZM197.987 29.6562C197.987 34.523 196.896 38.3629 194.017 40.9935C191.132 43.6294 186.403 45.0955 179.022 45.0955V45.5565C186.448 45.5565 191.317 44.0845 194.328 41.3339C197.344 38.5781 198.448 34.5831 198.448 29.6562H197.987ZM287.175 41.5653L286.955 41.6359L287.175 42.3194L287.394 41.6355L287.175 41.5653ZM274.482 2.15572L274.702 2.08504L274.65 1.92517H274.482V2.15572ZM259.204 2.15572V1.92517H259.036L258.985 2.08504L259.204 2.15572ZM246.511 41.5653L246.291 41.6339L246.508 42.328L246.731 41.6359L246.511 41.5653ZM234.211 2.15572L234.431 2.08703L234.38 1.92517H234.211V2.15572ZM218.384 2.15572V1.92517H218.057L218.167 2.23326L218.384 2.15572ZM237.971 57L237.754 57.0775L237.809 57.2305H237.971V57ZM254.19 57V57.2305H254.354L254.407 57.0756L254.19 57ZM266.882 20.411L267.1 20.3359L266.883 19.7056L266.664 20.3355L266.882 20.411ZM279.496 57L279.278 57.0751L279.332 57.2305H279.496V57ZM295.793 57V57.2305H295.955L296.01 57.0778L295.793 57ZM315.459 2.15572L315.676 2.23353L315.786 1.92517H315.459V2.15572ZM299.789 2.15572V1.92517H299.62L299.569 2.08544L299.789 2.15572ZM287.394 41.4946L274.702 2.08504L274.263 2.22639L286.955 41.6359L287.394 41.4946ZM274.482 1.92517H259.204V2.38627H274.482V1.92517ZM258.985 2.08504L246.292 41.4946L246.731 41.6359L259.423 2.22639L258.985 2.08504ZM246.732 41.4966L234.431 2.08703L233.991 2.22441L246.291 41.6339L246.732 41.4966ZM234.211 1.92517H218.384V2.38627H234.211V1.92517ZM218.167 2.23326L237.754 57.0775L238.189 56.9225L218.601 2.07818L218.167 2.23326ZM237.971 57.2305H254.19V56.7695H237.971V57.2305ZM254.407 57.0756L267.1 20.4866L266.664 20.3355L253.972 56.9244L254.407 57.0756ZM266.664 20.4862L279.278 57.0751L279.714 56.9249L267.1 20.3359L266.664 20.4862ZM279.496 57.2305H295.793V56.7695H279.496V57.2305ZM296.01 57.0778L315.676 2.23353L315.242 2.0779L295.576 56.9222L296.01 57.0778ZM315.459 1.92517H299.789V2.38627H315.459V1.92517ZM299.569 2.08544L286.955 41.495L287.394 41.6355L300.008 2.226L299.569 2.08544Z" fill="url(#paint0_linear_41_3785)"/>
<defs>
<linearGradient id="paint0_linear_41_3785" x1="27.1887" y1="11.2177" x2="18.4357" y2="-27.0294" gradientUnits="userSpaceOnUse">
<stop stop-color="white"/>
<stop offset="1" stop-color="#05EBFF"/>
</linearGradient>
</defs>
</svg>
