<svg width="16" height="16" viewBox="0 0 16 16" fill="none" xmlns="http://www.w3.org/2000/svg">
<path fill-rule="evenodd" clip-rule="evenodd" d="M3.96952 9.14207L0.282574 7.75126C-0.0919846 7.60956 -0.0949148 7.07518 0.278178 6.92962L15.4089 1.03017C15.7297 0.904916 16.0608 1.18879 15.9905 1.52924L13.2753 14.7301C13.2114 15.042 12.8499 15.1832 12.5946 14.9956L8.88809 12.2758C8.66298 12.1109 8.35627 12.1196 8.14091 12.2971L6.08549 13.9902C5.84718 14.1875 5.48777 14.0777 5.39645 13.7803L3.96952 9.14207ZM12.3717 3.91674L5.16628 8.40168C4.88987 8.57433 4.75998 8.9114 4.84934 9.22669L5.62825 11.9934C5.68343 12.1892 5.9652 12.1695 5.99206 11.9668L6.19472 10.4497C6.23281 10.1639 6.36759 9.90085 6.5766 9.70399L12.5231 4.11743C12.6344 4.01297 12.5012 3.83597 12.3717 3.91674Z" fill="white"/>
</svg>
