<svg width="16" height="16" viewBox="0 0 16 16" fill="none" xmlns="http://www.w3.org/2000/svg">
<path d="M16 1.00747C15.3036 1.5094 14.5324 1.89329 13.7164 2.14436C13.2784 1.6298 12.6962 1.26509 12.0488 1.09956C11.4013 0.934028 10.7196 0.975666 10.0961 1.21884C9.47248 1.46201 8.93705 1.89499 8.56217 2.45921C8.18729 3.02343 7.99105 3.69167 8 4.37356V5.11662C6.72192 5.15048 5.45547 4.86087 4.31346 4.27358C3.17145 3.68628 2.18932 2.81954 1.45455 1.75054C1.45455 1.75054 -1.45455 8.43813 5.09091 11.4104C3.59311 12.4492 1.80884 12.97 0 12.8965C6.54545 16.6118 14.5455 12.8965 14.5455 4.35127C14.5448 4.14429 14.5253 3.93782 14.4873 3.73452C15.2295 2.98662 15.7533 2.04235 16 1.00747V1.00747Z" fill="white"/>
</svg>
